%TF.GenerationSoftware,KiCad,Pcbnew,(6.99.0-5210-g1b15854da5)*%
%TF.CreationDate,2023-02-20T10:03:57+05:30*%
%TF.ProjectId,Prot_Circ,50726f74-5f43-4697-9263-2e6b69636164,rev?*%
%TF.SameCoordinates,Original*%
%TF.FileFunction,Copper,L1,Top*%
%TF.FilePolarity,Positive*%
%FSLAX46Y46*%
G04 Gerber Fmt 4.6, Leading zero omitted, Abs format (unit mm)*
G04 Created by KiCad (PCBNEW (6.99.0-5210-g1b15854da5)) date 2023-02-20 10:03:57*
%MOMM*%
%LPD*%
G01*
G04 APERTURE LIST*
%TA.AperFunction,SMDPad,CuDef*%
%ADD10R,1.900000X5.400000*%
%TD*%
%TA.AperFunction,SMDPad,CuDef*%
%ADD11R,0.650000X0.620000*%
%TD*%
%TA.AperFunction,SMDPad,CuDef*%
%ADD12R,0.762000X0.812800*%
%TD*%
%TA.AperFunction,SMDPad,CuDef*%
%ADD13R,2.160000X1.120000*%
%TD*%
%TA.AperFunction,SMDPad,CuDef*%
%ADD14R,0.400000X0.500000*%
%TD*%
%TA.AperFunction,ComponentPad*%
%ADD15R,3.960000X1.980000*%
%TD*%
%TA.AperFunction,ComponentPad*%
%ADD16O,3.960000X1.980000*%
%TD*%
%TA.AperFunction,SMDPad,CuDef*%
%ADD17R,1.020000X1.470000*%
%TD*%
%TA.AperFunction,SMDPad,CuDef*%
%ADD18R,0.600000X0.350000*%
%TD*%
%TA.AperFunction,SMDPad,CuDef*%
%ADD19R,1.100000X1.700000*%
%TD*%
%TA.AperFunction,ViaPad*%
%ADD20C,0.600000*%
%TD*%
%TA.AperFunction,ViaPad*%
%ADD21C,0.800000*%
%TD*%
%TA.AperFunction,Conductor*%
%ADD22C,0.250000*%
%TD*%
G04 APERTURE END LIST*
D10*
%TO.P,C4,1*%
%TO.N,Net-(F1-IN)*%
X136949999Y-78739999D03*
%TO.P,C4,2*%
%TO.N,Earth*%
X142449999Y-78739999D03*
%TD*%
D11*
%TO.P,C2,1*%
%TO.N,Net-(F1-EN{slash}UVLO)*%
X136279999Y-88899999D03*
%TO.P,C2,2*%
%TO.N,Earth*%
X137159999Y-88899999D03*
%TD*%
D12*
%TO.P,R1,1,1*%
%TO.N,Net-(F1-IN)*%
X140690599Y-86359999D03*
%TO.P,R1,2,2*%
%TO.N,Net-(F1-EN{slash}UVLO)*%
X142239999Y-86359999D03*
%TD*%
%TO.P,R4,1,1*%
%TO.N,Net-(F1-OVLO)*%
X131305299Y-86359999D03*
%TO.P,R4,2,2*%
%TO.N,Earth*%
X132854699Y-86359999D03*
%TD*%
%TO.P,R3,1,1*%
%TO.N,Net-(F1-IN)*%
X144779999Y-83819999D03*
%TO.P,R3,2,2*%
%TO.N,Net-(F1-OVLO)*%
X146329399Y-83819999D03*
%TD*%
D13*
%TO.P,SW1,1*%
%TO.N,Net-(F1-EN{slash}UVLO)*%
X143954999Y-91439999D03*
%TO.P,SW1,2*%
%TO.N,Earth*%
X150684999Y-91439999D03*
%TD*%
D14*
%TO.P,C1,1*%
%TO.N,Net-(F1-IN)*%
X141439999Y-83819999D03*
%TO.P,C1,2*%
%TO.N,Earth*%
X142239999Y-83819999D03*
%TD*%
D15*
%TO.P,J1,1,Pin_1*%
%TO.N,Earth*%
X121919999Y-88819999D03*
D16*
%TO.P,J1,2,Pin_2*%
%TO.N,Net-(F1-OUT)*%
X121919999Y-83819999D03*
%TD*%
D15*
%TO.P,J2,1,Pin_1*%
%TO.N,Net-(F1-IN)*%
X160019999Y-83819999D03*
D16*
%TO.P,J2,2,Pin_2*%
%TO.N,Earth*%
X160019999Y-88819999D03*
%TD*%
D12*
%TO.P,R2,1,1*%
%TO.N,Net-(F1-ILIM)*%
X133070599Y-91439999D03*
%TO.P,R2,2,2*%
%TO.N,Earth*%
X134619999Y-91439999D03*
%TD*%
D17*
%TO.P,C3,1*%
%TO.N,Net-(F1-OUT)*%
X130459999Y-81279999D03*
%TO.P,C3,2*%
%TO.N,Earth*%
X132079999Y-81279999D03*
%TD*%
D12*
%TO.P,R5,1,1*%
%TO.N,Net-(F1-EN{slash}UVLO)*%
X155930599Y-93979999D03*
%TO.P,R5,2,2*%
%TO.N,Earth*%
X157479999Y-93979999D03*
%TD*%
D18*
%TO.P,F1,1,OUT*%
%TO.N,Net-(F1-OUT)*%
X134619999Y-83819999D03*
%TO.P,F1,2,OVLO*%
%TO.N,Net-(F1-OVLO)*%
X134619999Y-84469999D03*
%TO.P,F1,3,ILIM*%
%TO.N,Net-(F1-ILIM)*%
X134619999Y-85119999D03*
%TO.P,F1,4,GND_1*%
%TO.N,Earth*%
X136719999Y-85119999D03*
%TO.P,F1,5,EN/UVLO*%
%TO.N,Net-(F1-EN{slash}UVLO)*%
X136719999Y-84469999D03*
%TO.P,F1,6,IN*%
%TO.N,Net-(F1-IN)*%
X136719999Y-83819999D03*
D19*
%TO.P,F1,7,GND_2*%
%TO.N,Earth*%
X135669999Y-84469999D03*
%TD*%
D20*
%TO.N,Earth*%
X135661400Y-84912200D03*
X135661400Y-83997800D03*
D21*
%TO.N,Net-(F1-OVLO)*%
X147320000Y-96520000D03*
X147320000Y-86360000D03*
%TD*%
D22*
%TO.N,Net-(F1-IN)*%
X136720000Y-78970000D02*
X136950000Y-78740000D01*
X157480000Y-81280000D02*
X160020000Y-83820000D01*
X140690600Y-86360000D02*
X138150600Y-83820000D01*
X144780000Y-83820000D02*
X144205000Y-84395000D01*
X138150600Y-83820000D02*
X136720000Y-83820000D01*
X144780000Y-83820000D02*
X147320000Y-81280000D01*
X141440000Y-83820000D02*
X136720000Y-83820000D01*
X141440000Y-84320000D02*
X141440000Y-83820000D01*
X147320000Y-81280000D02*
X157480000Y-81280000D01*
X141515000Y-84395000D02*
X141440000Y-84320000D01*
X136720000Y-83820000D02*
X136720000Y-78970000D01*
X144205000Y-84395000D02*
X141515000Y-84395000D01*
%TO.N,Earth*%
X136320000Y-85120000D02*
X135737600Y-84150200D01*
X135737600Y-84150200D02*
X135670000Y-84470000D01*
X136720000Y-85120000D02*
X136320000Y-85120000D01*
%TO.N,Net-(F1-EN{slash}UVLO)*%
X155930600Y-93980000D02*
X146495000Y-93980000D01*
X137345000Y-85620000D02*
X137345000Y-84505000D01*
X142240000Y-86360000D02*
X141508600Y-87091400D01*
X143955000Y-88075000D02*
X142240000Y-86360000D01*
X136280000Y-86685000D02*
X137345000Y-85620000D01*
X137345000Y-84505000D02*
X137310000Y-84470000D01*
X146495000Y-93980000D02*
X143955000Y-91440000D01*
X141508600Y-87091400D02*
X139931400Y-87091400D01*
X139931400Y-87091400D02*
X137345000Y-84505000D01*
X137310000Y-84470000D02*
X136720000Y-84470000D01*
X143955000Y-91440000D02*
X143955000Y-88075000D01*
X136280000Y-88900000D02*
X136280000Y-86685000D01*
%TO.N,Net-(F1-OUT)*%
X130460000Y-81280000D02*
X130460000Y-81505000D01*
X121920000Y-83820000D02*
X134620000Y-83820000D01*
X130460000Y-81505000D02*
X132775000Y-83820000D01*
X132775000Y-83820000D02*
X134620000Y-83820000D01*
%TO.N,Net-(F1-OVLO)*%
X131430000Y-84470000D02*
X129540000Y-86360000D01*
X129540000Y-93980000D02*
X132080000Y-96520000D01*
X146329400Y-85369400D02*
X146329400Y-83820000D01*
X129540000Y-86360000D02*
X129540000Y-93980000D01*
X132080000Y-96520000D02*
X147320000Y-96520000D01*
X131305300Y-86360000D02*
X132080000Y-85585300D01*
X132080000Y-85585300D02*
X132941096Y-85585300D01*
X134620000Y-84470000D02*
X131430000Y-84470000D01*
X147320000Y-86360000D02*
X146329400Y-85369400D01*
X134056396Y-84470000D02*
X134620000Y-84470000D01*
X132941096Y-85585300D02*
X134056396Y-84470000D01*
%TO.N,Net-(F1-ILIM)*%
X134620000Y-89890600D02*
X134620000Y-85369400D01*
X133070600Y-91440000D02*
X134620000Y-89890600D01*
X134620000Y-85369400D02*
X134645400Y-85344000D01*
%TD*%
%TA.AperFunction,Conductor*%
%TO.N,Earth*%
G36*
X167500300Y-72940781D02*
G01*
X167546419Y-72986900D01*
X167563300Y-73049900D01*
X167563300Y-101168700D01*
X167546419Y-101231700D01*
X167500300Y-101277819D01*
X167437300Y-101294700D01*
X113791500Y-101294700D01*
X113728500Y-101277819D01*
X113682381Y-101231700D01*
X113665500Y-101168700D01*
X113665500Y-96520000D01*
X120614532Y-96520000D01*
X120615011Y-96525475D01*
X120631697Y-96716205D01*
X120634365Y-96746692D01*
X120693261Y-96966496D01*
X120695583Y-96971476D01*
X120695584Y-96971478D01*
X120708230Y-96998597D01*
X120789432Y-97172734D01*
X120792584Y-97177235D01*
X120792586Y-97177239D01*
X120916793Y-97354627D01*
X120916797Y-97354631D01*
X120919953Y-97359139D01*
X121080861Y-97520047D01*
X121085369Y-97523203D01*
X121085372Y-97523206D01*
X121262760Y-97647413D01*
X121267266Y-97650568D01*
X121473504Y-97746739D01*
X121693308Y-97805635D01*
X121863216Y-97820500D01*
X121974044Y-97820500D01*
X121976784Y-97820500D01*
X122146692Y-97805635D01*
X122366496Y-97746739D01*
X122572734Y-97650568D01*
X122759139Y-97520047D01*
X122920047Y-97359139D01*
X123050568Y-97172734D01*
X123146739Y-96966496D01*
X123205635Y-96746692D01*
X123225468Y-96520000D01*
X123205635Y-96293308D01*
X123146739Y-96073504D01*
X123050568Y-95867266D01*
X123047413Y-95862760D01*
X122923206Y-95685372D01*
X122923203Y-95685369D01*
X122920047Y-95680861D01*
X122759139Y-95519953D01*
X122754631Y-95516797D01*
X122754627Y-95516793D01*
X122577239Y-95392586D01*
X122577235Y-95392584D01*
X122572734Y-95389432D01*
X122366496Y-95293261D01*
X122361188Y-95291838D01*
X122361186Y-95291838D01*
X122152006Y-95235789D01*
X122152007Y-95235789D01*
X122146692Y-95234365D01*
X122141216Y-95233885D01*
X122141211Y-95233885D01*
X121979507Y-95219738D01*
X121979501Y-95219737D01*
X121976784Y-95219500D01*
X121863216Y-95219500D01*
X121860499Y-95219737D01*
X121860492Y-95219738D01*
X121698788Y-95233885D01*
X121698781Y-95233886D01*
X121693308Y-95234365D01*
X121687994Y-95235788D01*
X121687993Y-95235789D01*
X121478813Y-95291838D01*
X121478808Y-95291839D01*
X121473504Y-95293261D01*
X121468527Y-95295581D01*
X121468521Y-95295584D01*
X121272247Y-95387109D01*
X121272244Y-95387110D01*
X121267266Y-95389432D01*
X121262769Y-95392580D01*
X121262760Y-95392586D01*
X121085372Y-95516793D01*
X121085361Y-95516801D01*
X121080861Y-95519953D01*
X121076971Y-95523842D01*
X121076965Y-95523848D01*
X120923848Y-95676965D01*
X120923842Y-95676971D01*
X120919953Y-95680861D01*
X120916801Y-95685361D01*
X120916793Y-95685372D01*
X120792586Y-95862760D01*
X120792580Y-95862769D01*
X120789432Y-95867266D01*
X120787110Y-95872244D01*
X120787109Y-95872247D01*
X120695584Y-96068521D01*
X120695581Y-96068527D01*
X120693261Y-96073504D01*
X120634365Y-96293308D01*
X120633886Y-96298781D01*
X120633885Y-96298788D01*
X120630574Y-96336635D01*
X120614532Y-96520000D01*
X113665500Y-96520000D01*
X113665500Y-89855223D01*
X119432000Y-89855223D01*
X119432359Y-89861938D01*
X119437662Y-89911257D01*
X119441259Y-89926478D01*
X119486405Y-90047519D01*
X119494954Y-90063175D01*
X119571697Y-90165692D01*
X119584307Y-90178302D01*
X119686824Y-90255045D01*
X119702480Y-90263594D01*
X119823521Y-90308740D01*
X119838742Y-90312337D01*
X119888061Y-90317640D01*
X119894777Y-90318000D01*
X121649410Y-90318000D01*
X121662493Y-90314493D01*
X121666000Y-90301410D01*
X122174000Y-90301410D01*
X122177506Y-90314493D01*
X122190590Y-90318000D01*
X123945223Y-90318000D01*
X123951938Y-90317640D01*
X124001257Y-90312337D01*
X124016478Y-90308740D01*
X124137519Y-90263594D01*
X124153175Y-90255045D01*
X124255692Y-90178302D01*
X124268302Y-90165692D01*
X124345045Y-90063175D01*
X124353594Y-90047519D01*
X124398740Y-89926478D01*
X124402337Y-89911257D01*
X124407640Y-89861938D01*
X124408000Y-89855223D01*
X124408000Y-89090590D01*
X124404493Y-89077506D01*
X124391410Y-89074000D01*
X122190590Y-89074000D01*
X122177506Y-89077506D01*
X122174000Y-89090590D01*
X122174000Y-90301410D01*
X121666000Y-90301410D01*
X121666000Y-89090590D01*
X121662493Y-89077506D01*
X121649410Y-89074000D01*
X119448590Y-89074000D01*
X119435506Y-89077506D01*
X119432000Y-89090590D01*
X119432000Y-89855223D01*
X113665500Y-89855223D01*
X113665500Y-88549410D01*
X119432000Y-88549410D01*
X119435506Y-88562493D01*
X119448590Y-88566000D01*
X121649410Y-88566000D01*
X121662493Y-88562493D01*
X121666000Y-88549410D01*
X122174000Y-88549410D01*
X122177506Y-88562493D01*
X122190590Y-88566000D01*
X124391410Y-88566000D01*
X124404493Y-88562493D01*
X124408000Y-88549410D01*
X124408000Y-87784777D01*
X124407640Y-87778061D01*
X124402337Y-87728742D01*
X124398740Y-87713521D01*
X124353594Y-87592480D01*
X124345045Y-87576824D01*
X124268302Y-87474307D01*
X124255692Y-87461697D01*
X124153175Y-87384954D01*
X124137519Y-87376405D01*
X124016478Y-87331259D01*
X124001257Y-87327662D01*
X123951938Y-87322359D01*
X123945223Y-87322000D01*
X122190590Y-87322000D01*
X122177506Y-87325506D01*
X122174000Y-87338590D01*
X122174000Y-88549410D01*
X121666000Y-88549410D01*
X121666000Y-87338590D01*
X121662493Y-87325506D01*
X121649410Y-87322000D01*
X119894777Y-87322000D01*
X119888061Y-87322359D01*
X119838742Y-87327662D01*
X119823521Y-87331259D01*
X119702480Y-87376405D01*
X119686824Y-87384954D01*
X119584307Y-87461697D01*
X119571697Y-87474307D01*
X119494954Y-87576824D01*
X119486405Y-87592480D01*
X119441259Y-87713521D01*
X119437662Y-87728742D01*
X119432359Y-87778061D01*
X119432000Y-87784777D01*
X119432000Y-88549410D01*
X113665500Y-88549410D01*
X113665500Y-83944169D01*
X119431500Y-83944169D01*
X119432356Y-83949303D01*
X119432357Y-83949306D01*
X119465853Y-84150040D01*
X119472375Y-84189121D01*
X119474065Y-84194045D01*
X119474067Y-84194051D01*
X119551316Y-84419072D01*
X119551319Y-84419080D01*
X119553010Y-84424004D01*
X119671206Y-84642411D01*
X119674405Y-84646521D01*
X119814416Y-84826408D01*
X119823739Y-84838385D01*
X119827570Y-84841912D01*
X119827575Y-84841917D01*
X119974299Y-84976985D01*
X120006448Y-85006580D01*
X120010811Y-85009430D01*
X120010813Y-85009432D01*
X120069483Y-85047763D01*
X120214348Y-85142408D01*
X120441770Y-85242165D01*
X120682510Y-85303128D01*
X120868019Y-85318500D01*
X122969367Y-85318500D01*
X122971981Y-85318500D01*
X123157490Y-85303128D01*
X123398230Y-85242165D01*
X123625652Y-85142408D01*
X123833552Y-85006580D01*
X124016261Y-84838385D01*
X124168794Y-84642411D01*
X124206037Y-84573593D01*
X124235294Y-84519531D01*
X124281611Y-84471259D01*
X124346108Y-84453500D01*
X130246405Y-84453500D01*
X130303608Y-84467233D01*
X130348341Y-84505439D01*
X130370854Y-84559789D01*
X130366238Y-84618436D01*
X130335500Y-84668595D01*
X130135754Y-84868341D01*
X129147736Y-85856357D01*
X129139458Y-85863889D01*
X129132982Y-85868000D01*
X129111383Y-85891000D01*
X129086370Y-85917636D01*
X129083621Y-85920472D01*
X129066667Y-85937427D01*
X129066660Y-85937434D01*
X129063865Y-85940230D01*
X129061442Y-85943352D01*
X129061426Y-85943371D01*
X129061365Y-85943451D01*
X129053690Y-85952435D01*
X129028838Y-85978902D01*
X129028835Y-85978904D01*
X129023414Y-85984679D01*
X129019600Y-85991614D01*
X129019592Y-85991627D01*
X129013650Y-86002436D01*
X129002803Y-86018949D01*
X128995243Y-86028695D01*
X128995237Y-86028704D01*
X128990386Y-86034959D01*
X128987242Y-86042223D01*
X128987238Y-86042231D01*
X128972824Y-86075540D01*
X128967604Y-86086195D01*
X128950125Y-86117989D01*
X128950121Y-86117997D01*
X128946305Y-86124940D01*
X128944333Y-86132616D01*
X128944331Y-86132624D01*
X128941266Y-86144562D01*
X128934865Y-86163259D01*
X128929968Y-86174576D01*
X128929966Y-86174581D01*
X128926819Y-86181855D01*
X128925579Y-86189680D01*
X128925577Y-86189689D01*
X128919901Y-86225524D01*
X128917495Y-86237144D01*
X128908471Y-86272289D01*
X128908469Y-86272297D01*
X128906500Y-86279970D01*
X128906500Y-86287899D01*
X128906500Y-86300224D01*
X128904949Y-86319935D01*
X128903019Y-86332114D01*
X128903018Y-86332121D01*
X128901780Y-86339943D01*
X128902525Y-86347826D01*
X128902525Y-86347834D01*
X128905941Y-86383961D01*
X128906500Y-86395819D01*
X128906500Y-93901233D01*
X128905972Y-93912416D01*
X128904298Y-93919909D01*
X128904547Y-93927833D01*
X128904547Y-93927835D01*
X128906438Y-93987986D01*
X128906500Y-93991945D01*
X128906500Y-94019856D01*
X128906995Y-94023774D01*
X128906997Y-94023806D01*
X128907008Y-94023888D01*
X128907937Y-94035697D01*
X128909077Y-94071969D01*
X128909078Y-94071976D01*
X128909327Y-94079889D01*
X128911537Y-94087498D01*
X128911538Y-94087500D01*
X128914978Y-94099342D01*
X128918986Y-94118693D01*
X128921526Y-94138797D01*
X128924444Y-94146169D01*
X128924445Y-94146170D01*
X128937800Y-94179901D01*
X128941645Y-94191130D01*
X128951771Y-94225986D01*
X128951773Y-94225992D01*
X128953982Y-94233593D01*
X128958014Y-94240411D01*
X128958015Y-94240413D01*
X128964293Y-94251029D01*
X128972990Y-94268782D01*
X128980448Y-94287617D01*
X128985107Y-94294030D01*
X128985108Y-94294031D01*
X129006432Y-94323381D01*
X129012948Y-94333301D01*
X129031422Y-94364538D01*
X129035458Y-94371362D01*
X129041062Y-94376966D01*
X129041063Y-94376967D01*
X129049778Y-94385682D01*
X129062618Y-94400715D01*
X129074528Y-94417107D01*
X129080635Y-94422159D01*
X129080636Y-94422160D01*
X129108598Y-94445292D01*
X129117378Y-94453282D01*
X131576342Y-96912246D01*
X131583884Y-96920533D01*
X131588000Y-96927018D01*
X131593779Y-96932444D01*
X131593780Y-96932446D01*
X131637667Y-96973658D01*
X131640508Y-96976412D01*
X131660230Y-96996134D01*
X131663414Y-96998604D01*
X131672437Y-97006309D01*
X131704679Y-97036586D01*
X131711628Y-97040406D01*
X131722429Y-97046344D01*
X131738959Y-97057202D01*
X131748694Y-97064754D01*
X131748697Y-97064756D01*
X131754959Y-97069613D01*
X131795536Y-97087172D01*
X131806171Y-97092381D01*
X131844940Y-97113695D01*
X131864566Y-97118734D01*
X131883259Y-97125134D01*
X131901855Y-97133181D01*
X131945518Y-97140095D01*
X131957129Y-97142500D01*
X131999970Y-97153500D01*
X132020231Y-97153500D01*
X132039939Y-97155050D01*
X132059943Y-97158219D01*
X132067835Y-97157473D01*
X132073062Y-97156979D01*
X132103954Y-97154058D01*
X132115811Y-97153500D01*
X146611800Y-97153500D01*
X146663047Y-97164392D01*
X146698724Y-97190312D01*
X146699420Y-97189540D01*
X146704331Y-97193962D01*
X146708747Y-97198866D01*
X146863248Y-97311118D01*
X147037712Y-97388794D01*
X147224513Y-97428500D01*
X147408884Y-97428500D01*
X147415487Y-97428500D01*
X147602288Y-97388794D01*
X147776752Y-97311118D01*
X147931253Y-97198866D01*
X148059040Y-97056944D01*
X148154527Y-96891556D01*
X148213542Y-96709928D01*
X148233504Y-96520000D01*
X158714532Y-96520000D01*
X158715011Y-96525475D01*
X158731697Y-96716205D01*
X158734365Y-96746692D01*
X158793261Y-96966496D01*
X158795583Y-96971476D01*
X158795584Y-96971478D01*
X158808230Y-96998597D01*
X158889432Y-97172734D01*
X158892584Y-97177235D01*
X158892586Y-97177239D01*
X159016793Y-97354627D01*
X159016797Y-97354631D01*
X159019953Y-97359139D01*
X159180861Y-97520047D01*
X159185369Y-97523203D01*
X159185372Y-97523206D01*
X159362760Y-97647413D01*
X159367266Y-97650568D01*
X159573504Y-97746739D01*
X159793308Y-97805635D01*
X159963216Y-97820500D01*
X160074044Y-97820500D01*
X160076784Y-97820500D01*
X160246692Y-97805635D01*
X160466496Y-97746739D01*
X160672734Y-97650568D01*
X160859139Y-97520047D01*
X161020047Y-97359139D01*
X161150568Y-97172734D01*
X161246739Y-96966496D01*
X161305635Y-96746692D01*
X161325468Y-96520000D01*
X161305635Y-96293308D01*
X161246739Y-96073504D01*
X161150568Y-95867266D01*
X161147413Y-95862760D01*
X161023206Y-95685372D01*
X161023203Y-95685369D01*
X161020047Y-95680861D01*
X160859139Y-95519953D01*
X160854631Y-95516797D01*
X160854627Y-95516793D01*
X160677239Y-95392586D01*
X160677235Y-95392584D01*
X160672734Y-95389432D01*
X160466496Y-95293261D01*
X160461188Y-95291838D01*
X160461186Y-95291838D01*
X160252006Y-95235789D01*
X160252007Y-95235789D01*
X160246692Y-95234365D01*
X160241216Y-95233885D01*
X160241211Y-95233885D01*
X160079507Y-95219738D01*
X160079501Y-95219737D01*
X160076784Y-95219500D01*
X159963216Y-95219500D01*
X159960499Y-95219737D01*
X159960492Y-95219738D01*
X159798788Y-95233885D01*
X159798781Y-95233886D01*
X159793308Y-95234365D01*
X159787994Y-95235788D01*
X159787993Y-95235789D01*
X159578813Y-95291838D01*
X159578808Y-95291839D01*
X159573504Y-95293261D01*
X159568527Y-95295581D01*
X159568521Y-95295584D01*
X159372247Y-95387109D01*
X159372244Y-95387110D01*
X159367266Y-95389432D01*
X159362769Y-95392580D01*
X159362760Y-95392586D01*
X159185372Y-95516793D01*
X159185361Y-95516801D01*
X159180861Y-95519953D01*
X159176971Y-95523842D01*
X159176965Y-95523848D01*
X159023848Y-95676965D01*
X159023842Y-95676971D01*
X159019953Y-95680861D01*
X159016801Y-95685361D01*
X159016793Y-95685372D01*
X158892586Y-95862760D01*
X158892580Y-95862769D01*
X158889432Y-95867266D01*
X158887110Y-95872244D01*
X158887109Y-95872247D01*
X158795584Y-96068521D01*
X158795581Y-96068527D01*
X158793261Y-96073504D01*
X158734365Y-96293308D01*
X158733886Y-96298781D01*
X158733885Y-96298788D01*
X158730574Y-96336635D01*
X158714532Y-96520000D01*
X148233504Y-96520000D01*
X148213542Y-96330072D01*
X148154527Y-96148444D01*
X148059040Y-95983056D01*
X147931253Y-95841134D01*
X147925911Y-95837253D01*
X147925908Y-95837250D01*
X147848057Y-95780688D01*
X147776752Y-95728882D01*
X147602288Y-95651206D01*
X147595835Y-95649834D01*
X147595831Y-95649833D01*
X147421943Y-95612872D01*
X147421940Y-95612871D01*
X147415487Y-95611500D01*
X147224513Y-95611500D01*
X147218060Y-95612871D01*
X147218056Y-95612872D01*
X147044168Y-95649833D01*
X147044161Y-95649835D01*
X147037712Y-95651206D01*
X147031682Y-95653890D01*
X147031681Y-95653891D01*
X146869278Y-95726197D01*
X146869275Y-95726198D01*
X146863248Y-95728882D01*
X146857907Y-95732762D01*
X146857906Y-95732763D01*
X146714086Y-95837254D01*
X146714080Y-95837259D01*
X146708747Y-95841134D01*
X146704333Y-95846035D01*
X146699420Y-95850460D01*
X146698724Y-95849687D01*
X146663047Y-95875608D01*
X146611800Y-95886500D01*
X132394595Y-95886500D01*
X132346377Y-95876909D01*
X132305500Y-95849595D01*
X130210405Y-93754500D01*
X130183091Y-93713623D01*
X130173500Y-93665405D01*
X130173500Y-86899510D01*
X130188027Y-86840776D01*
X130228257Y-86795585D01*
X130284915Y-86774357D01*
X130344936Y-86781987D01*
X130394480Y-86816716D01*
X130421672Y-86869658D01*
X130422311Y-86875601D01*
X130425062Y-86882978D01*
X130425063Y-86882980D01*
X130470262Y-87004163D01*
X130470264Y-87004166D01*
X130473411Y-87012604D01*
X130478808Y-87019814D01*
X130478810Y-87019817D01*
X130495977Y-87042749D01*
X130561039Y-87129661D01*
X130678096Y-87217289D01*
X130815099Y-87268389D01*
X130875662Y-87274900D01*
X131731569Y-87274900D01*
X131734938Y-87274900D01*
X131795501Y-87268389D01*
X131932504Y-87217289D01*
X132004912Y-87163084D01*
X132053632Y-87140835D01*
X132107199Y-87140834D01*
X132155925Y-87163087D01*
X132220524Y-87211445D01*
X132236180Y-87219994D01*
X132357221Y-87265140D01*
X132372442Y-87268737D01*
X132421761Y-87274040D01*
X132428477Y-87274400D01*
X132584110Y-87274400D01*
X132597193Y-87270893D01*
X132600700Y-87257810D01*
X132600700Y-86344800D01*
X132617581Y-86281800D01*
X132663700Y-86235681D01*
X132726700Y-86218800D01*
X132862329Y-86218800D01*
X132873512Y-86219327D01*
X132881005Y-86221002D01*
X132949081Y-86218862D01*
X132953041Y-86218800D01*
X132980952Y-86218800D01*
X132980952Y-86220249D01*
X133041074Y-86233028D01*
X133090476Y-86279418D01*
X133108700Y-86344690D01*
X133108700Y-87257810D01*
X133112206Y-87270893D01*
X133125290Y-87274400D01*
X133280923Y-87274400D01*
X133287638Y-87274040D01*
X133336957Y-87268737D01*
X133352178Y-87265140D01*
X133473219Y-87219994D01*
X133488875Y-87211445D01*
X133591392Y-87134702D01*
X133604002Y-87122092D01*
X133680745Y-87019575D01*
X133689294Y-87003919D01*
X133734440Y-86882877D01*
X133737877Y-86868337D01*
X133765521Y-86814518D01*
X133815066Y-86779790D01*
X133875086Y-86772160D01*
X133931743Y-86793388D01*
X133971973Y-86838579D01*
X133986500Y-86897313D01*
X133986500Y-89576005D01*
X133976909Y-89624223D01*
X133949595Y-89665100D01*
X133126500Y-90488195D01*
X133085623Y-90515509D01*
X133037405Y-90525100D01*
X132640962Y-90525100D01*
X132637615Y-90525459D01*
X132637611Y-90525460D01*
X132588232Y-90530768D01*
X132588225Y-90530769D01*
X132580399Y-90531611D01*
X132573023Y-90534361D01*
X132573019Y-90534363D01*
X132451836Y-90579562D01*
X132451830Y-90579565D01*
X132443396Y-90582711D01*
X132436188Y-90588106D01*
X132436182Y-90588110D01*
X132333550Y-90664940D01*
X132333546Y-90664943D01*
X132326339Y-90670339D01*
X132320943Y-90677546D01*
X132320940Y-90677550D01*
X132244110Y-90780182D01*
X132244106Y-90780188D01*
X132238711Y-90787396D01*
X132235565Y-90795830D01*
X132235562Y-90795836D01*
X132190363Y-90917019D01*
X132190361Y-90917023D01*
X132187611Y-90924399D01*
X132186769Y-90932225D01*
X132186768Y-90932232D01*
X132181460Y-90981611D01*
X132181100Y-90984962D01*
X132181100Y-91895038D01*
X132181459Y-91898385D01*
X132181460Y-91898388D01*
X132186768Y-91947767D01*
X132186769Y-91947773D01*
X132187611Y-91955601D01*
X132190362Y-91962978D01*
X132190363Y-91962980D01*
X132235562Y-92084163D01*
X132235564Y-92084166D01*
X132238711Y-92092604D01*
X132244108Y-92099814D01*
X132244110Y-92099817D01*
X132260340Y-92121497D01*
X132326339Y-92209661D01*
X132333550Y-92215059D01*
X132375154Y-92246204D01*
X132443396Y-92297289D01*
X132580399Y-92348389D01*
X132640962Y-92354900D01*
X133496869Y-92354900D01*
X133500238Y-92354900D01*
X133560801Y-92348389D01*
X133697804Y-92297289D01*
X133770212Y-92243084D01*
X133818932Y-92220835D01*
X133872499Y-92220834D01*
X133921225Y-92243087D01*
X133985824Y-92291445D01*
X134001480Y-92299994D01*
X134122521Y-92345140D01*
X134137742Y-92348737D01*
X134187061Y-92354040D01*
X134193777Y-92354400D01*
X134349410Y-92354400D01*
X134362493Y-92350893D01*
X134366000Y-92337810D01*
X134874000Y-92337810D01*
X134877506Y-92350893D01*
X134890590Y-92354400D01*
X135046223Y-92354400D01*
X135052938Y-92354040D01*
X135102257Y-92348737D01*
X135117478Y-92345140D01*
X135238519Y-92299994D01*
X135254175Y-92291445D01*
X135356692Y-92214702D01*
X135369302Y-92202092D01*
X135446045Y-92099575D01*
X135454594Y-92083919D01*
X135499740Y-91962878D01*
X135503337Y-91947657D01*
X135508640Y-91898338D01*
X135509000Y-91891623D01*
X135509000Y-91710590D01*
X135505493Y-91697506D01*
X135492410Y-91694000D01*
X134890590Y-91694000D01*
X134877506Y-91697506D01*
X134874000Y-91710590D01*
X134874000Y-92337810D01*
X134366000Y-92337810D01*
X134366000Y-91312000D01*
X134382881Y-91249000D01*
X134429000Y-91202881D01*
X134492000Y-91186000D01*
X135492410Y-91186000D01*
X135505493Y-91182493D01*
X135509000Y-91169410D01*
X135509000Y-90988377D01*
X135508640Y-90981661D01*
X135503337Y-90932342D01*
X135499740Y-90917121D01*
X135454594Y-90796080D01*
X135446045Y-90780424D01*
X135369302Y-90677907D01*
X135356692Y-90665297D01*
X135254175Y-90588554D01*
X135238521Y-90580006D01*
X135122124Y-90536592D01*
X135070931Y-90501047D01*
X135043036Y-90445316D01*
X135045262Y-90383033D01*
X135077064Y-90329438D01*
X135096134Y-90310370D01*
X135098601Y-90307188D01*
X135106310Y-90298161D01*
X135136586Y-90265921D01*
X135146345Y-90248167D01*
X135157199Y-90231643D01*
X135169613Y-90215641D01*
X135176420Y-90199908D01*
X135187167Y-90175075D01*
X135192392Y-90164408D01*
X135206297Y-90139117D01*
X135213695Y-90125660D01*
X135218732Y-90106042D01*
X135225138Y-90087330D01*
X135233181Y-90068745D01*
X135240099Y-90025056D01*
X135242503Y-90013456D01*
X135243638Y-90009036D01*
X135253500Y-89970630D01*
X135253500Y-89950369D01*
X135255051Y-89930658D01*
X135256979Y-89918484D01*
X135258219Y-89910657D01*
X135254058Y-89866645D01*
X135253500Y-89854789D01*
X135253500Y-89482663D01*
X135272540Y-89416063D01*
X135323906Y-89369591D01*
X135392073Y-89357292D01*
X135456441Y-89382883D01*
X135497555Y-89438629D01*
X135500960Y-89447759D01*
X135500963Y-89447765D01*
X135504111Y-89456204D01*
X135509508Y-89463414D01*
X135509510Y-89463417D01*
X135586073Y-89565692D01*
X135591739Y-89573261D01*
X135598950Y-89578659D01*
X135662912Y-89626541D01*
X135708796Y-89660889D01*
X135845799Y-89711989D01*
X135906362Y-89718500D01*
X136650269Y-89718500D01*
X136653638Y-89718500D01*
X136708890Y-89712560D01*
X136735821Y-89712560D01*
X136783066Y-89717640D01*
X136789777Y-89718000D01*
X136889410Y-89718000D01*
X136902493Y-89714493D01*
X136906000Y-89701410D01*
X137414000Y-89701410D01*
X137417506Y-89714493D01*
X137430590Y-89718000D01*
X137530223Y-89718000D01*
X137536938Y-89717640D01*
X137586257Y-89712337D01*
X137601478Y-89708740D01*
X137722519Y-89663594D01*
X137738175Y-89655045D01*
X137840692Y-89578302D01*
X137853302Y-89565692D01*
X137930045Y-89463175D01*
X137938594Y-89447519D01*
X137983740Y-89326478D01*
X137987337Y-89311257D01*
X137992640Y-89261938D01*
X137993000Y-89255223D01*
X137993000Y-89170590D01*
X137989493Y-89157506D01*
X137976410Y-89154000D01*
X137430590Y-89154000D01*
X137417506Y-89157506D01*
X137414000Y-89170590D01*
X137414000Y-89701410D01*
X136906000Y-89701410D01*
X136906000Y-89682940D01*
X136919327Y-89626541D01*
X136956491Y-89582072D01*
X136956817Y-89581827D01*
X136968261Y-89573261D01*
X137055889Y-89456204D01*
X137106989Y-89319201D01*
X137113500Y-89258638D01*
X137113500Y-88629410D01*
X137414000Y-88629410D01*
X137417506Y-88642493D01*
X137430590Y-88646000D01*
X137976410Y-88646000D01*
X137989493Y-88642493D01*
X137993000Y-88629410D01*
X137993000Y-88544777D01*
X137992640Y-88538061D01*
X137987337Y-88488742D01*
X137983740Y-88473521D01*
X137938594Y-88352480D01*
X137930045Y-88336824D01*
X137853302Y-88234307D01*
X137840692Y-88221697D01*
X137738175Y-88144954D01*
X137722519Y-88136405D01*
X137601478Y-88091259D01*
X137586257Y-88087662D01*
X137536938Y-88082359D01*
X137530223Y-88082000D01*
X137430590Y-88082000D01*
X137417506Y-88085506D01*
X137414000Y-88098590D01*
X137414000Y-88629410D01*
X137113500Y-88629410D01*
X137113500Y-88541362D01*
X137106989Y-88480799D01*
X137055889Y-88343796D01*
X136968261Y-88226739D01*
X136961049Y-88221340D01*
X136954675Y-88214966D01*
X136955844Y-88213796D01*
X136926825Y-88179069D01*
X136913500Y-88122674D01*
X136913500Y-86999595D01*
X136923091Y-86951377D01*
X136950404Y-86910500D01*
X137737253Y-86123650D01*
X137745536Y-86116112D01*
X137752018Y-86112000D01*
X137798675Y-86062313D01*
X137801398Y-86059505D01*
X137810131Y-86050772D01*
X137813405Y-86047498D01*
X137869888Y-86014887D01*
X137935110Y-86014887D01*
X137991594Y-86047499D01*
X139427747Y-87483652D01*
X139435286Y-87491935D01*
X139439400Y-87498418D01*
X139445182Y-87503847D01*
X139445184Y-87503850D01*
X139489049Y-87545042D01*
X139491892Y-87547797D01*
X139511630Y-87567535D01*
X139514760Y-87569963D01*
X139514832Y-87570019D01*
X139523840Y-87577713D01*
X139556079Y-87607986D01*
X139563027Y-87611805D01*
X139563029Y-87611807D01*
X139573826Y-87617743D01*
X139590350Y-87628597D01*
X139600094Y-87636155D01*
X139600097Y-87636157D01*
X139606359Y-87641014D01*
X139636060Y-87653866D01*
X139646935Y-87658572D01*
X139657600Y-87663797D01*
X139671225Y-87671287D01*
X139696340Y-87685095D01*
X139715960Y-87690132D01*
X139734652Y-87696530D01*
X139753255Y-87704581D01*
X139796925Y-87711497D01*
X139808525Y-87713898D01*
X139851370Y-87724900D01*
X139871624Y-87724900D01*
X139891334Y-87726450D01*
X139911343Y-87729620D01*
X139955361Y-87725458D01*
X139967219Y-87724900D01*
X141429833Y-87724900D01*
X141441016Y-87725427D01*
X141448509Y-87727102D01*
X141516585Y-87724962D01*
X141520545Y-87724900D01*
X141544494Y-87724900D01*
X141548456Y-87724900D01*
X141552456Y-87724394D01*
X141564299Y-87723461D01*
X141608489Y-87722073D01*
X141627933Y-87716423D01*
X141647302Y-87712412D01*
X141667397Y-87709874D01*
X141708515Y-87693593D01*
X141719717Y-87689757D01*
X141762193Y-87677418D01*
X141779639Y-87667099D01*
X141797369Y-87658413D01*
X141816217Y-87650952D01*
X141851987Y-87624961D01*
X141861898Y-87618451D01*
X141899962Y-87595942D01*
X141914288Y-87581615D01*
X141929317Y-87568778D01*
X141945707Y-87556872D01*
X141973898Y-87522793D01*
X141981868Y-87514034D01*
X142150906Y-87344997D01*
X142207389Y-87312387D01*
X142272611Y-87312387D01*
X142329095Y-87344999D01*
X143284595Y-88300499D01*
X143311909Y-88341376D01*
X143321500Y-88389594D01*
X143321500Y-90245500D01*
X143304619Y-90308500D01*
X143258500Y-90354619D01*
X143195500Y-90371500D01*
X142826362Y-90371500D01*
X142823015Y-90371859D01*
X142823011Y-90371860D01*
X142773632Y-90377168D01*
X142773625Y-90377169D01*
X142765799Y-90378011D01*
X142758423Y-90380761D01*
X142758419Y-90380763D01*
X142637236Y-90425962D01*
X142637230Y-90425965D01*
X142628796Y-90429111D01*
X142621588Y-90434506D01*
X142621582Y-90434510D01*
X142518950Y-90511340D01*
X142518946Y-90511343D01*
X142511739Y-90516739D01*
X142506343Y-90523946D01*
X142506340Y-90523950D01*
X142429510Y-90626582D01*
X142429506Y-90626588D01*
X142424111Y-90633796D01*
X142420965Y-90642230D01*
X142420962Y-90642236D01*
X142375763Y-90763419D01*
X142375761Y-90763423D01*
X142373011Y-90770799D01*
X142372169Y-90778625D01*
X142372168Y-90778632D01*
X142366860Y-90828011D01*
X142366500Y-90831362D01*
X142366500Y-92048638D01*
X142366859Y-92051985D01*
X142366860Y-92051988D01*
X142372168Y-92101367D01*
X142372169Y-92101373D01*
X142373011Y-92109201D01*
X142375762Y-92116578D01*
X142375763Y-92116580D01*
X142420962Y-92237763D01*
X142420964Y-92237766D01*
X142424111Y-92246204D01*
X142429508Y-92253414D01*
X142429510Y-92253417D01*
X142498174Y-92345140D01*
X142511739Y-92363261D01*
X142628796Y-92450889D01*
X142765799Y-92501989D01*
X142826362Y-92508500D01*
X144075406Y-92508500D01*
X144123624Y-92518091D01*
X144164501Y-92545405D01*
X145991342Y-94372246D01*
X145998884Y-94380533D01*
X146003000Y-94387018D01*
X146008779Y-94392444D01*
X146008780Y-94392446D01*
X146052667Y-94433658D01*
X146055508Y-94436412D01*
X146075230Y-94456134D01*
X146078414Y-94458604D01*
X146087437Y-94466309D01*
X146119679Y-94496586D01*
X146126628Y-94500406D01*
X146137429Y-94506344D01*
X146153959Y-94517202D01*
X146163694Y-94524754D01*
X146163697Y-94524756D01*
X146169959Y-94529613D01*
X146210536Y-94547172D01*
X146221171Y-94552381D01*
X146259940Y-94573695D01*
X146279566Y-94578734D01*
X146298259Y-94585134D01*
X146316855Y-94593181D01*
X146360518Y-94600095D01*
X146372129Y-94602500D01*
X146414970Y-94613500D01*
X146435231Y-94613500D01*
X146454939Y-94615050D01*
X146474943Y-94618219D01*
X146482835Y-94617473D01*
X146488062Y-94616979D01*
X146518954Y-94614058D01*
X146530811Y-94613500D01*
X155021339Y-94613500D01*
X155077739Y-94626828D01*
X155122207Y-94663991D01*
X155186339Y-94749661D01*
X155303396Y-94837289D01*
X155440399Y-94888389D01*
X155500962Y-94894900D01*
X156356869Y-94894900D01*
X156360238Y-94894900D01*
X156420801Y-94888389D01*
X156557804Y-94837289D01*
X156630212Y-94783084D01*
X156678932Y-94760835D01*
X156732499Y-94760834D01*
X156781225Y-94783087D01*
X156845824Y-94831445D01*
X156861480Y-94839994D01*
X156982521Y-94885140D01*
X156997742Y-94888737D01*
X157047061Y-94894040D01*
X157053777Y-94894400D01*
X157209410Y-94894400D01*
X157222493Y-94890893D01*
X157226000Y-94877810D01*
X157734000Y-94877810D01*
X157737506Y-94890893D01*
X157750590Y-94894400D01*
X157906223Y-94894400D01*
X157912938Y-94894040D01*
X157962257Y-94888737D01*
X157977478Y-94885140D01*
X158098519Y-94839994D01*
X158114175Y-94831445D01*
X158216692Y-94754702D01*
X158229302Y-94742092D01*
X158306045Y-94639575D01*
X158314594Y-94623919D01*
X158359740Y-94502878D01*
X158363337Y-94487657D01*
X158368640Y-94438338D01*
X158369000Y-94431623D01*
X158369000Y-94250590D01*
X158365493Y-94237506D01*
X158352410Y-94234000D01*
X157750590Y-94234000D01*
X157737506Y-94237506D01*
X157734000Y-94250590D01*
X157734000Y-94877810D01*
X157226000Y-94877810D01*
X157226000Y-93709410D01*
X157734000Y-93709410D01*
X157737506Y-93722493D01*
X157750590Y-93726000D01*
X158352410Y-93726000D01*
X158365493Y-93722493D01*
X158369000Y-93709410D01*
X158369000Y-93528377D01*
X158368640Y-93521661D01*
X158363337Y-93472342D01*
X158359740Y-93457121D01*
X158314594Y-93336080D01*
X158306045Y-93320424D01*
X158229302Y-93217907D01*
X158216692Y-93205297D01*
X158114175Y-93128554D01*
X158098519Y-93120005D01*
X157977478Y-93074859D01*
X157962257Y-93071262D01*
X157912938Y-93065959D01*
X157906223Y-93065600D01*
X157750590Y-93065600D01*
X157737506Y-93069106D01*
X157734000Y-93082190D01*
X157734000Y-93709410D01*
X157226000Y-93709410D01*
X157226000Y-93082190D01*
X157222493Y-93069106D01*
X157209410Y-93065600D01*
X157053777Y-93065600D01*
X157047061Y-93065959D01*
X156997742Y-93071262D01*
X156982521Y-93074859D01*
X156861480Y-93120005D01*
X156845828Y-93128551D01*
X156781225Y-93176913D01*
X156732499Y-93199165D01*
X156678932Y-93199164D01*
X156630210Y-93176914D01*
X156557804Y-93122711D01*
X156549366Y-93119564D01*
X156549363Y-93119562D01*
X156428180Y-93074363D01*
X156428178Y-93074362D01*
X156420801Y-93071611D01*
X156412973Y-93070769D01*
X156412967Y-93070768D01*
X156363588Y-93065460D01*
X156363585Y-93065459D01*
X156360238Y-93065100D01*
X155500962Y-93065100D01*
X155497615Y-93065459D01*
X155497611Y-93065460D01*
X155448232Y-93070768D01*
X155448225Y-93070769D01*
X155440399Y-93071611D01*
X155433023Y-93074361D01*
X155433019Y-93074363D01*
X155311836Y-93119562D01*
X155311830Y-93119565D01*
X155303396Y-93122711D01*
X155296188Y-93128106D01*
X155296182Y-93128110D01*
X155193550Y-93204940D01*
X155193546Y-93204943D01*
X155186339Y-93210339D01*
X155180943Y-93217546D01*
X155180940Y-93217550D01*
X155122207Y-93296009D01*
X155077739Y-93333172D01*
X155021339Y-93346500D01*
X146809595Y-93346500D01*
X146761377Y-93336909D01*
X146720500Y-93309595D01*
X145577976Y-92167071D01*
X145548247Y-92119891D01*
X145541794Y-92064503D01*
X145543500Y-92048638D01*
X145543500Y-92045223D01*
X149097000Y-92045223D01*
X149097359Y-92051938D01*
X149102662Y-92101257D01*
X149106259Y-92116478D01*
X149151405Y-92237519D01*
X149159954Y-92253175D01*
X149236697Y-92355692D01*
X149249307Y-92368302D01*
X149351824Y-92445045D01*
X149367480Y-92453594D01*
X149488521Y-92498740D01*
X149503742Y-92502337D01*
X149553061Y-92507640D01*
X149559777Y-92508000D01*
X150414410Y-92508000D01*
X150427493Y-92504493D01*
X150431000Y-92491410D01*
X150939000Y-92491410D01*
X150942506Y-92504493D01*
X150955590Y-92508000D01*
X151810223Y-92508000D01*
X151816938Y-92507640D01*
X151866257Y-92502337D01*
X151881478Y-92498740D01*
X152002519Y-92453594D01*
X152018175Y-92445045D01*
X152120692Y-92368302D01*
X152133302Y-92355692D01*
X152210045Y-92253175D01*
X152218594Y-92237519D01*
X152263740Y-92116478D01*
X152267337Y-92101257D01*
X152272640Y-92051938D01*
X152273000Y-92045223D01*
X152273000Y-91710590D01*
X152269493Y-91697506D01*
X152256410Y-91694000D01*
X150955590Y-91694000D01*
X150942506Y-91697506D01*
X150939000Y-91710590D01*
X150939000Y-92491410D01*
X150431000Y-92491410D01*
X150431000Y-91710590D01*
X150427493Y-91697506D01*
X150414410Y-91694000D01*
X149113590Y-91694000D01*
X149100506Y-91697506D01*
X149097000Y-91710590D01*
X149097000Y-92045223D01*
X145543500Y-92045223D01*
X145543500Y-91169410D01*
X149097000Y-91169410D01*
X149100506Y-91182493D01*
X149113590Y-91186000D01*
X150414410Y-91186000D01*
X150427493Y-91182493D01*
X150431000Y-91169410D01*
X150939000Y-91169410D01*
X150942506Y-91182493D01*
X150955590Y-91186000D01*
X152256410Y-91186000D01*
X152269493Y-91182493D01*
X152273000Y-91169410D01*
X152273000Y-90834777D01*
X152272640Y-90828061D01*
X152267337Y-90778742D01*
X152263740Y-90763521D01*
X152218594Y-90642480D01*
X152210045Y-90626824D01*
X152133302Y-90524307D01*
X152120692Y-90511697D01*
X152018175Y-90434954D01*
X152002519Y-90426405D01*
X151881478Y-90381259D01*
X151866257Y-90377662D01*
X151816938Y-90372359D01*
X151810223Y-90372000D01*
X150955590Y-90372000D01*
X150942506Y-90375506D01*
X150939000Y-90388590D01*
X150939000Y-91169410D01*
X150431000Y-91169410D01*
X150431000Y-90388590D01*
X150427493Y-90375506D01*
X150414410Y-90372000D01*
X149559777Y-90372000D01*
X149553061Y-90372359D01*
X149503742Y-90377662D01*
X149488521Y-90381259D01*
X149367480Y-90426405D01*
X149351824Y-90434954D01*
X149249307Y-90511697D01*
X149236697Y-90524307D01*
X149159954Y-90626824D01*
X149151405Y-90642480D01*
X149106259Y-90763521D01*
X149102662Y-90778742D01*
X149097359Y-90828061D01*
X149097000Y-90834777D01*
X149097000Y-91169410D01*
X145543500Y-91169410D01*
X145543500Y-90831362D01*
X145536989Y-90770799D01*
X145485889Y-90633796D01*
X145398261Y-90516739D01*
X145360131Y-90488195D01*
X145288417Y-90434510D01*
X145288414Y-90434508D01*
X145281204Y-90429111D01*
X145272766Y-90425964D01*
X145272763Y-90425962D01*
X145151580Y-90380763D01*
X145151578Y-90380762D01*
X145144201Y-90378011D01*
X145136373Y-90377169D01*
X145136367Y-90377168D01*
X145086988Y-90371860D01*
X145086985Y-90371859D01*
X145083638Y-90371500D01*
X145080269Y-90371500D01*
X144714500Y-90371500D01*
X144651500Y-90354619D01*
X144605381Y-90308500D01*
X144588500Y-90245500D01*
X144588500Y-89087541D01*
X157555931Y-89087541D01*
X157572003Y-89183855D01*
X157574553Y-89193925D01*
X157651776Y-89418870D01*
X157655950Y-89428384D01*
X157769152Y-89637562D01*
X157774823Y-89646243D01*
X157920903Y-89833927D01*
X157927947Y-89841579D01*
X158102915Y-90002648D01*
X158111121Y-90009036D01*
X158310225Y-90139117D01*
X158319360Y-90144060D01*
X158537160Y-90239596D01*
X158546985Y-90242969D01*
X158777533Y-90301351D01*
X158787787Y-90303063D01*
X158965441Y-90317784D01*
X158970656Y-90318000D01*
X159749410Y-90318000D01*
X159762493Y-90314493D01*
X159766000Y-90301410D01*
X160274000Y-90301410D01*
X160277506Y-90314493D01*
X160290590Y-90318000D01*
X161069344Y-90318000D01*
X161074558Y-90317784D01*
X161252212Y-90303063D01*
X161262466Y-90301351D01*
X161493014Y-90242969D01*
X161502839Y-90239596D01*
X161720639Y-90144060D01*
X161729774Y-90139117D01*
X161928878Y-90009036D01*
X161937084Y-90002648D01*
X162112052Y-89841579D01*
X162119096Y-89833927D01*
X162265176Y-89646243D01*
X162270847Y-89637562D01*
X162384049Y-89428384D01*
X162388223Y-89418870D01*
X162465446Y-89193925D01*
X162467996Y-89183855D01*
X162484068Y-89087541D01*
X162483492Y-89076401D01*
X162472601Y-89074000D01*
X160290590Y-89074000D01*
X160277506Y-89077506D01*
X160274000Y-89090590D01*
X160274000Y-90301410D01*
X159766000Y-90301410D01*
X159766000Y-89090590D01*
X159762493Y-89077506D01*
X159749410Y-89074000D01*
X157567399Y-89074000D01*
X157556507Y-89076401D01*
X157555931Y-89087541D01*
X144588500Y-89087541D01*
X144588500Y-88552458D01*
X157555931Y-88552458D01*
X157556507Y-88563598D01*
X157567399Y-88566000D01*
X159749410Y-88566000D01*
X159762493Y-88562493D01*
X159766000Y-88549410D01*
X160274000Y-88549410D01*
X160277506Y-88562493D01*
X160290590Y-88566000D01*
X162472601Y-88566000D01*
X162483492Y-88563598D01*
X162484068Y-88552458D01*
X162467996Y-88456144D01*
X162465446Y-88446074D01*
X162388223Y-88221129D01*
X162384049Y-88211615D01*
X162270847Y-88002437D01*
X162265176Y-87993756D01*
X162119096Y-87806072D01*
X162112047Y-87798415D01*
X161937084Y-87637351D01*
X161928878Y-87630963D01*
X161729774Y-87500882D01*
X161720639Y-87495939D01*
X161502839Y-87400403D01*
X161493014Y-87397030D01*
X161262466Y-87338648D01*
X161252212Y-87336936D01*
X161074558Y-87322215D01*
X161069344Y-87322000D01*
X160290590Y-87322000D01*
X160277506Y-87325506D01*
X160274000Y-87338590D01*
X160274000Y-88549410D01*
X159766000Y-88549410D01*
X159766000Y-87338590D01*
X159762493Y-87325506D01*
X159749410Y-87322000D01*
X158970656Y-87322000D01*
X158965441Y-87322215D01*
X158787787Y-87336936D01*
X158777533Y-87338648D01*
X158546985Y-87397030D01*
X158537160Y-87400403D01*
X158319360Y-87495939D01*
X158310225Y-87500882D01*
X158111121Y-87630963D01*
X158102915Y-87637351D01*
X157927953Y-87798415D01*
X157920903Y-87806072D01*
X157774823Y-87993756D01*
X157769152Y-88002437D01*
X157655950Y-88211615D01*
X157651776Y-88221129D01*
X157574553Y-88446074D01*
X157572003Y-88456144D01*
X157555931Y-88552458D01*
X144588500Y-88552458D01*
X144588500Y-88153767D01*
X144589027Y-88142583D01*
X144590702Y-88135091D01*
X144588562Y-88067014D01*
X144588500Y-88063055D01*
X144588500Y-88039108D01*
X144588500Y-88035144D01*
X144587994Y-88031147D01*
X144587061Y-88019297D01*
X144585673Y-87975110D01*
X144580020Y-87955656D01*
X144576012Y-87936297D01*
X144573474Y-87916203D01*
X144557197Y-87875093D01*
X144553351Y-87863860D01*
X144543229Y-87829019D01*
X144541018Y-87821407D01*
X144530707Y-87803973D01*
X144522008Y-87786215D01*
X144517469Y-87774751D01*
X144514552Y-87767383D01*
X144488561Y-87731610D01*
X144482050Y-87721698D01*
X144477441Y-87713904D01*
X144459542Y-87683637D01*
X144445217Y-87669312D01*
X144432376Y-87654277D01*
X144425134Y-87644309D01*
X144425131Y-87644306D01*
X144420472Y-87637893D01*
X144401889Y-87622520D01*
X144386405Y-87609710D01*
X144377626Y-87601721D01*
X143166405Y-86390500D01*
X143139091Y-86349623D01*
X143129500Y-86301405D01*
X143129500Y-85908331D01*
X143129500Y-85904962D01*
X143122989Y-85844399D01*
X143071889Y-85707396D01*
X143052229Y-85681134D01*
X142989659Y-85597550D01*
X142984261Y-85590339D01*
X142968916Y-85578852D01*
X142874417Y-85508110D01*
X142874414Y-85508108D01*
X142867204Y-85502711D01*
X142858766Y-85499564D01*
X142858763Y-85499562D01*
X142737580Y-85454363D01*
X142737578Y-85454362D01*
X142730201Y-85451611D01*
X142722373Y-85450769D01*
X142722367Y-85450768D01*
X142672988Y-85445460D01*
X142672985Y-85445459D01*
X142669638Y-85445100D01*
X141810362Y-85445100D01*
X141807015Y-85445459D01*
X141807011Y-85445460D01*
X141757632Y-85450768D01*
X141757625Y-85450769D01*
X141749799Y-85451611D01*
X141742423Y-85454361D01*
X141742419Y-85454363D01*
X141621236Y-85499562D01*
X141621230Y-85499565D01*
X141612796Y-85502711D01*
X141605585Y-85508108D01*
X141605583Y-85508110D01*
X141540808Y-85556600D01*
X141492083Y-85578852D01*
X141438517Y-85578852D01*
X141389792Y-85556600D01*
X141325016Y-85508110D01*
X141317804Y-85502711D01*
X141309366Y-85499564D01*
X141309363Y-85499562D01*
X141188180Y-85454363D01*
X141188178Y-85454362D01*
X141180801Y-85451611D01*
X141172973Y-85450769D01*
X141172967Y-85450768D01*
X141123588Y-85445460D01*
X141123585Y-85445459D01*
X141120238Y-85445100D01*
X141116869Y-85445100D01*
X140723795Y-85445100D01*
X140675577Y-85435509D01*
X140634700Y-85408195D01*
X139895100Y-84668595D01*
X139864362Y-84618436D01*
X139859746Y-84559789D01*
X139882259Y-84505439D01*
X139926992Y-84467233D01*
X139984195Y-84453500D01*
X140724488Y-84453500D01*
X140776939Y-84464936D01*
X140819869Y-84497169D01*
X140845485Y-84544347D01*
X140853982Y-84573593D01*
X140858014Y-84580411D01*
X140858015Y-84580413D01*
X140864293Y-84591029D01*
X140872990Y-84608782D01*
X140876812Y-84618436D01*
X140880448Y-84627617D01*
X140885107Y-84634030D01*
X140885108Y-84634031D01*
X140906432Y-84663381D01*
X140912948Y-84673301D01*
X140924976Y-84693638D01*
X140935458Y-84711362D01*
X140941063Y-84716967D01*
X140949778Y-84725682D01*
X140962618Y-84740715D01*
X140966724Y-84746367D01*
X140974528Y-84757107D01*
X140980635Y-84762159D01*
X140980637Y-84762161D01*
X141005296Y-84782561D01*
X141019954Y-84797218D01*
X141023000Y-84802018D01*
X141028777Y-84807442D01*
X141028778Y-84807444D01*
X141072636Y-84848628D01*
X141075482Y-84851386D01*
X141084567Y-84860472D01*
X141095230Y-84871135D01*
X141098351Y-84873556D01*
X141098352Y-84873557D01*
X141098432Y-84873619D01*
X141107440Y-84881313D01*
X141139679Y-84911586D01*
X141146627Y-84915405D01*
X141146629Y-84915407D01*
X141157426Y-84921343D01*
X141173950Y-84932197D01*
X141183694Y-84939755D01*
X141183697Y-84939757D01*
X141189959Y-84944614D01*
X141219660Y-84957466D01*
X141230535Y-84962172D01*
X141241200Y-84967397D01*
X141279940Y-84988695D01*
X141299560Y-84993732D01*
X141318252Y-85000130D01*
X141336855Y-85008181D01*
X141380525Y-85015097D01*
X141392125Y-85017498D01*
X141434970Y-85028500D01*
X141455224Y-85028500D01*
X141474934Y-85030050D01*
X141494943Y-85033220D01*
X141538961Y-85029058D01*
X141550819Y-85028500D01*
X144126233Y-85028500D01*
X144137416Y-85029027D01*
X144144909Y-85030702D01*
X144212985Y-85028562D01*
X144216945Y-85028500D01*
X144240894Y-85028500D01*
X144244856Y-85028500D01*
X144248856Y-85027994D01*
X144260699Y-85027061D01*
X144304889Y-85025673D01*
X144324333Y-85020023D01*
X144343702Y-85016012D01*
X144363797Y-85013474D01*
X144404915Y-84997193D01*
X144416117Y-84993357D01*
X144458593Y-84981018D01*
X144476039Y-84970699D01*
X144493769Y-84962013D01*
X144512617Y-84954552D01*
X144548387Y-84928561D01*
X144558298Y-84922051D01*
X144596362Y-84899542D01*
X144610688Y-84885215D01*
X144625717Y-84872378D01*
X144642107Y-84860472D01*
X144670290Y-84826403D01*
X144678268Y-84817634D01*
X144710893Y-84785009D01*
X144724101Y-84771803D01*
X144764978Y-84744491D01*
X144813195Y-84734900D01*
X145206269Y-84734900D01*
X145209638Y-84734900D01*
X145270201Y-84728389D01*
X145407204Y-84677289D01*
X145479194Y-84623397D01*
X145527915Y-84601148D01*
X145581481Y-84601147D01*
X145630207Y-84623399D01*
X145645408Y-84634778D01*
X145682572Y-84679246D01*
X145695900Y-84735647D01*
X145695900Y-85290633D01*
X145695372Y-85301816D01*
X145693698Y-85309309D01*
X145693947Y-85317233D01*
X145693947Y-85317235D01*
X145695838Y-85377386D01*
X145695900Y-85381345D01*
X145695900Y-85409256D01*
X145696395Y-85413174D01*
X145696397Y-85413206D01*
X145696408Y-85413288D01*
X145697337Y-85425097D01*
X145698477Y-85461369D01*
X145698478Y-85461376D01*
X145698727Y-85469289D01*
X145700937Y-85476898D01*
X145700938Y-85476900D01*
X145704378Y-85488742D01*
X145708386Y-85508093D01*
X145710926Y-85528197D01*
X145713844Y-85535569D01*
X145713845Y-85535570D01*
X145727200Y-85569301D01*
X145731045Y-85580530D01*
X145741171Y-85615386D01*
X145741173Y-85615392D01*
X145743382Y-85622993D01*
X145747414Y-85629811D01*
X145747415Y-85629813D01*
X145753693Y-85640429D01*
X145762390Y-85658182D01*
X145762421Y-85658261D01*
X145769848Y-85677017D01*
X145774507Y-85683430D01*
X145774508Y-85683431D01*
X145795832Y-85712781D01*
X145802348Y-85722701D01*
X145820822Y-85753938D01*
X145824858Y-85760762D01*
X145830463Y-85766367D01*
X145839178Y-85775082D01*
X145852018Y-85790115D01*
X145863928Y-85806507D01*
X145870035Y-85811559D01*
X145870036Y-85811560D01*
X145897992Y-85834687D01*
X145906773Y-85842677D01*
X146372878Y-86308783D01*
X146397508Y-86343633D01*
X146409092Y-86384707D01*
X146421931Y-86506855D01*
X146426458Y-86549928D01*
X146428495Y-86556200D01*
X146428497Y-86556205D01*
X146483430Y-86725271D01*
X146483433Y-86725278D01*
X146485473Y-86731556D01*
X146580960Y-86896944D01*
X146708747Y-87038866D01*
X146863248Y-87151118D01*
X147037712Y-87228794D01*
X147224513Y-87268500D01*
X147408884Y-87268500D01*
X147415487Y-87268500D01*
X147602288Y-87228794D01*
X147776752Y-87151118D01*
X147931253Y-87038866D01*
X148059040Y-86896944D01*
X148154527Y-86731556D01*
X148213542Y-86549928D01*
X148233504Y-86360000D01*
X148213542Y-86170072D01*
X148168642Y-86031886D01*
X148156569Y-85994728D01*
X148156568Y-85994726D01*
X148154527Y-85988444D01*
X148059040Y-85823056D01*
X147931253Y-85681134D01*
X147925911Y-85677253D01*
X147925908Y-85677250D01*
X147816210Y-85597550D01*
X147776752Y-85568882D01*
X147602288Y-85491206D01*
X147595835Y-85489834D01*
X147595831Y-85489833D01*
X147421943Y-85452872D01*
X147421940Y-85452871D01*
X147415487Y-85451500D01*
X147408884Y-85451500D01*
X147359595Y-85451500D01*
X147311377Y-85441909D01*
X147270499Y-85414595D01*
X146999804Y-85143899D01*
X146972491Y-85103022D01*
X146962900Y-85054804D01*
X146962900Y-84735647D01*
X146976227Y-84679247D01*
X147013391Y-84634779D01*
X147028591Y-84623400D01*
X147073661Y-84589661D01*
X147161289Y-84472604D01*
X147212389Y-84335601D01*
X147218900Y-84275038D01*
X147218900Y-83364962D01*
X147212389Y-83304399D01*
X147161289Y-83167396D01*
X147147963Y-83149595D01*
X147082390Y-83062000D01*
X147073661Y-83050339D01*
X147066449Y-83044940D01*
X146963817Y-82968110D01*
X146963814Y-82968108D01*
X146956604Y-82962711D01*
X146948165Y-82959563D01*
X146948157Y-82959559D01*
X146831913Y-82916202D01*
X146780721Y-82880659D01*
X146752825Y-82824930D01*
X146755050Y-82762648D01*
X146786848Y-82709055D01*
X147545502Y-81950401D01*
X147586376Y-81923091D01*
X147634594Y-81913500D01*
X157165406Y-81913500D01*
X157213624Y-81923091D01*
X157254501Y-81950405D01*
X157639820Y-82335724D01*
X157670742Y-82386453D01*
X157674981Y-82445713D01*
X157651594Y-82500327D01*
X157594510Y-82576583D01*
X157594508Y-82576585D01*
X157589111Y-82583796D01*
X157585965Y-82592230D01*
X157585962Y-82592236D01*
X157540763Y-82713419D01*
X157540761Y-82713423D01*
X157538011Y-82720799D01*
X157537169Y-82728625D01*
X157537168Y-82728632D01*
X157531860Y-82778011D01*
X157531500Y-82781362D01*
X157531500Y-84858638D01*
X157531859Y-84861985D01*
X157531860Y-84861988D01*
X157537168Y-84911367D01*
X157537169Y-84911373D01*
X157538011Y-84919201D01*
X157540762Y-84926578D01*
X157540763Y-84926580D01*
X157585962Y-85047763D01*
X157585964Y-85047766D01*
X157589111Y-85056204D01*
X157594508Y-85063414D01*
X157594510Y-85063417D01*
X157654759Y-85143899D01*
X157676739Y-85173261D01*
X157683950Y-85178659D01*
X157770489Y-85243442D01*
X157793796Y-85260889D01*
X157930799Y-85311989D01*
X157991362Y-85318500D01*
X162045269Y-85318500D01*
X162048638Y-85318500D01*
X162109201Y-85311989D01*
X162246204Y-85260889D01*
X162363261Y-85173261D01*
X162450889Y-85056204D01*
X162501989Y-84919201D01*
X162508500Y-84858638D01*
X162508500Y-82781362D01*
X162501989Y-82720799D01*
X162450889Y-82583796D01*
X162445489Y-82576583D01*
X162445489Y-82576582D01*
X162368659Y-82473950D01*
X162363261Y-82466739D01*
X162309448Y-82426455D01*
X162253417Y-82384510D01*
X162253414Y-82384508D01*
X162246204Y-82379111D01*
X162237766Y-82375964D01*
X162237763Y-82375962D01*
X162116580Y-82330763D01*
X162116578Y-82330762D01*
X162109201Y-82328011D01*
X162101373Y-82327169D01*
X162101367Y-82327168D01*
X162051988Y-82321860D01*
X162051985Y-82321859D01*
X162048638Y-82321500D01*
X162045269Y-82321500D01*
X159469595Y-82321500D01*
X159421377Y-82311909D01*
X159380500Y-82284595D01*
X157983646Y-80887741D01*
X157976112Y-80879463D01*
X157972000Y-80872982D01*
X157922348Y-80826356D01*
X157919506Y-80823601D01*
X157902574Y-80806669D01*
X157899770Y-80803865D01*
X157896575Y-80801386D01*
X157887554Y-80793682D01*
X157861097Y-80768838D01*
X157855321Y-80763414D01*
X157848377Y-80759596D01*
X157848371Y-80759592D01*
X157837566Y-80753652D01*
X157821047Y-80742801D01*
X157805041Y-80730386D01*
X157797766Y-80727238D01*
X157797763Y-80727236D01*
X157764466Y-80712828D01*
X157753804Y-80707605D01*
X157722007Y-80690124D01*
X157722005Y-80690123D01*
X157715060Y-80686305D01*
X157707383Y-80684334D01*
X157707381Y-80684333D01*
X157695438Y-80681267D01*
X157676734Y-80674863D01*
X157665420Y-80669967D01*
X157665418Y-80669966D01*
X157658145Y-80666819D01*
X157650319Y-80665579D01*
X157650318Y-80665579D01*
X157614475Y-80659902D01*
X157602859Y-80657496D01*
X157560030Y-80646500D01*
X157552101Y-80646500D01*
X157539776Y-80646500D01*
X157520065Y-80644949D01*
X157507885Y-80643019D01*
X157507878Y-80643018D01*
X157500057Y-80641780D01*
X157492173Y-80642525D01*
X157492165Y-80642525D01*
X157456039Y-80645941D01*
X157444181Y-80646500D01*
X147398763Y-80646500D01*
X147387579Y-80645972D01*
X147380091Y-80644299D01*
X147372176Y-80644547D01*
X147372168Y-80644547D01*
X147312033Y-80646438D01*
X147308075Y-80646500D01*
X147280144Y-80646500D01*
X147276232Y-80646993D01*
X147276199Y-80646996D01*
X147276101Y-80647009D01*
X147264300Y-80647937D01*
X147228030Y-80649077D01*
X147228022Y-80649078D01*
X147220110Y-80649327D01*
X147212504Y-80651536D01*
X147212501Y-80651537D01*
X147200655Y-80654979D01*
X147181306Y-80658986D01*
X147174234Y-80659879D01*
X147161203Y-80661526D01*
X147153844Y-80664439D01*
X147153834Y-80664442D01*
X147120082Y-80677805D01*
X147108860Y-80681647D01*
X147074014Y-80691771D01*
X147074010Y-80691772D01*
X147066406Y-80693982D01*
X147059585Y-80698015D01*
X147059582Y-80698017D01*
X147048968Y-80704294D01*
X147031218Y-80712990D01*
X147019756Y-80717528D01*
X147019751Y-80717530D01*
X147012383Y-80720448D01*
X147005974Y-80725104D01*
X147005969Y-80725107D01*
X146976615Y-80746434D01*
X146966697Y-80752948D01*
X146935464Y-80771419D01*
X146935456Y-80771425D01*
X146928637Y-80775458D01*
X146923035Y-80781058D01*
X146923028Y-80781065D01*
X146914304Y-80789789D01*
X146899282Y-80802618D01*
X146889311Y-80809863D01*
X146889302Y-80809871D01*
X146882893Y-80814528D01*
X146877846Y-80820628D01*
X146877838Y-80820636D01*
X146854710Y-80848593D01*
X146846723Y-80857370D01*
X144835900Y-82868195D01*
X144795023Y-82895509D01*
X144746805Y-82905100D01*
X144350362Y-82905100D01*
X144347015Y-82905459D01*
X144347011Y-82905460D01*
X144297632Y-82910768D01*
X144297625Y-82910769D01*
X144289799Y-82911611D01*
X144282423Y-82914361D01*
X144282419Y-82914363D01*
X144161236Y-82959562D01*
X144161230Y-82959565D01*
X144152796Y-82962711D01*
X144145588Y-82968106D01*
X144145582Y-82968110D01*
X144042950Y-83044940D01*
X144042946Y-83044943D01*
X144035739Y-83050339D01*
X144030343Y-83057546D01*
X144030340Y-83057550D01*
X143953510Y-83160182D01*
X143953506Y-83160188D01*
X143948111Y-83167396D01*
X143944965Y-83175830D01*
X143944962Y-83175836D01*
X143899763Y-83297019D01*
X143899761Y-83297023D01*
X143897011Y-83304399D01*
X143896169Y-83312225D01*
X143896168Y-83312232D01*
X143890860Y-83361611D01*
X143890500Y-83364962D01*
X143890500Y-83368331D01*
X143890500Y-83635500D01*
X143873619Y-83698500D01*
X143827500Y-83744619D01*
X143764500Y-83761500D01*
X143074000Y-83761500D01*
X143011000Y-83744619D01*
X142964881Y-83698500D01*
X142948000Y-83635500D01*
X142948000Y-83524777D01*
X142947640Y-83518061D01*
X142942337Y-83468742D01*
X142938740Y-83453521D01*
X142893594Y-83332480D01*
X142885045Y-83316824D01*
X142808302Y-83214307D01*
X142795692Y-83201697D01*
X142693175Y-83124954D01*
X142677519Y-83116405D01*
X142556478Y-83071259D01*
X142541257Y-83067662D01*
X142491938Y-83062359D01*
X142485223Y-83062000D01*
X142456590Y-83062000D01*
X142443506Y-83065506D01*
X142440000Y-83078590D01*
X142440000Y-83635500D01*
X142423119Y-83698500D01*
X142377000Y-83744619D01*
X142314000Y-83761500D01*
X142274500Y-83761500D01*
X142211500Y-83744619D01*
X142165381Y-83698500D01*
X142148500Y-83635500D01*
X142148500Y-83524731D01*
X142148500Y-83521362D01*
X142141989Y-83460799D01*
X142090889Y-83323796D01*
X142082232Y-83312232D01*
X142065132Y-83289389D01*
X142046448Y-83253671D01*
X142040000Y-83213880D01*
X142040000Y-83078590D01*
X142036493Y-83065506D01*
X142023410Y-83062000D01*
X141994777Y-83062000D01*
X141988061Y-83062359D01*
X141938742Y-83067662D01*
X141923519Y-83071259D01*
X141884744Y-83085721D01*
X141840714Y-83093664D01*
X141796684Y-83085720D01*
X141756586Y-83070764D01*
X141756575Y-83070761D01*
X141749201Y-83068011D01*
X141741373Y-83067169D01*
X141741367Y-83067168D01*
X141691988Y-83061860D01*
X141691985Y-83061859D01*
X141688638Y-83061500D01*
X141191362Y-83061500D01*
X141188015Y-83061859D01*
X141188011Y-83061860D01*
X141138632Y-83067168D01*
X141138625Y-83067169D01*
X141130799Y-83068011D01*
X141123423Y-83070761D01*
X141123419Y-83070763D01*
X141002236Y-83115962D01*
X141002230Y-83115965D01*
X140993796Y-83119111D01*
X140986583Y-83124510D01*
X140986582Y-83124511D01*
X140937347Y-83161368D01*
X140901629Y-83180052D01*
X140861838Y-83186500D01*
X138210376Y-83186500D01*
X138190665Y-83184949D01*
X138178485Y-83183019D01*
X138178478Y-83183018D01*
X138170657Y-83181780D01*
X138162773Y-83182525D01*
X138162765Y-83182525D01*
X138126639Y-83185941D01*
X138114781Y-83186500D01*
X137479500Y-83186500D01*
X137416500Y-83169619D01*
X137370381Y-83123500D01*
X137353500Y-83060500D01*
X137353500Y-82074500D01*
X137370381Y-82011500D01*
X137416500Y-81965381D01*
X137479500Y-81948500D01*
X137945269Y-81948500D01*
X137948638Y-81948500D01*
X138009201Y-81941989D01*
X138146204Y-81890889D01*
X138263261Y-81803261D01*
X138350889Y-81686204D01*
X138401989Y-81549201D01*
X138408500Y-81488638D01*
X138408500Y-81485223D01*
X140992000Y-81485223D01*
X140992359Y-81491938D01*
X140997662Y-81541257D01*
X141001259Y-81556478D01*
X141046405Y-81677519D01*
X141054954Y-81693175D01*
X141131697Y-81795692D01*
X141144307Y-81808302D01*
X141246824Y-81885045D01*
X141262480Y-81893594D01*
X141383521Y-81938740D01*
X141398742Y-81942337D01*
X141448061Y-81947640D01*
X141454777Y-81948000D01*
X142179410Y-81948000D01*
X142192493Y-81944493D01*
X142196000Y-81931410D01*
X142704000Y-81931410D01*
X142707506Y-81944493D01*
X142720590Y-81948000D01*
X143445223Y-81948000D01*
X143451938Y-81947640D01*
X143501257Y-81942337D01*
X143516478Y-81938740D01*
X143637519Y-81893594D01*
X143653175Y-81885045D01*
X143755692Y-81808302D01*
X143768302Y-81795692D01*
X143845045Y-81693175D01*
X143853594Y-81677519D01*
X143898740Y-81556478D01*
X143902337Y-81541257D01*
X143907640Y-81491938D01*
X143908000Y-81485223D01*
X143908000Y-79010590D01*
X143904493Y-78997506D01*
X143891410Y-78994000D01*
X142720590Y-78994000D01*
X142707506Y-78997506D01*
X142704000Y-79010590D01*
X142704000Y-81931410D01*
X142196000Y-81931410D01*
X142196000Y-79010590D01*
X142192493Y-78997506D01*
X142179410Y-78994000D01*
X141008590Y-78994000D01*
X140995506Y-78997506D01*
X140992000Y-79010590D01*
X140992000Y-81485223D01*
X138408500Y-81485223D01*
X138408500Y-78469410D01*
X140992000Y-78469410D01*
X140995506Y-78482493D01*
X141008590Y-78486000D01*
X142179410Y-78486000D01*
X142192493Y-78482493D01*
X142196000Y-78469410D01*
X142704000Y-78469410D01*
X142707506Y-78482493D01*
X142720590Y-78486000D01*
X143891410Y-78486000D01*
X143904493Y-78482493D01*
X143908000Y-78469410D01*
X143908000Y-76200000D01*
X158714532Y-76200000D01*
X158734365Y-76426692D01*
X158793261Y-76646496D01*
X158889432Y-76852734D01*
X158892584Y-76857235D01*
X158892586Y-76857239D01*
X159016793Y-77034627D01*
X159016797Y-77034631D01*
X159019953Y-77039139D01*
X159180861Y-77200047D01*
X159185369Y-77203203D01*
X159185372Y-77203206D01*
X159362760Y-77327413D01*
X159367266Y-77330568D01*
X159573504Y-77426739D01*
X159793308Y-77485635D01*
X159963216Y-77500500D01*
X160074044Y-77500500D01*
X160076784Y-77500500D01*
X160246692Y-77485635D01*
X160466496Y-77426739D01*
X160672734Y-77330568D01*
X160859139Y-77200047D01*
X161020047Y-77039139D01*
X161150568Y-76852734D01*
X161246739Y-76646496D01*
X161305635Y-76426692D01*
X161325468Y-76200000D01*
X161305635Y-75973308D01*
X161246739Y-75753504D01*
X161150568Y-75547266D01*
X161020047Y-75360861D01*
X160859139Y-75199953D01*
X160854631Y-75196797D01*
X160854627Y-75196793D01*
X160677239Y-75072586D01*
X160677235Y-75072584D01*
X160672734Y-75069432D01*
X160466496Y-74973261D01*
X160461188Y-74971838D01*
X160461186Y-74971838D01*
X160252006Y-74915789D01*
X160252007Y-74915789D01*
X160246692Y-74914365D01*
X160241216Y-74913885D01*
X160241211Y-74913885D01*
X160079507Y-74899738D01*
X160079501Y-74899737D01*
X160076784Y-74899500D01*
X159963216Y-74899500D01*
X159960499Y-74899737D01*
X159960492Y-74899738D01*
X159798788Y-74913885D01*
X159798781Y-74913886D01*
X159793308Y-74914365D01*
X159787994Y-74915788D01*
X159787993Y-74915789D01*
X159578813Y-74971838D01*
X159578808Y-74971839D01*
X159573504Y-74973261D01*
X159568527Y-74975581D01*
X159568521Y-74975584D01*
X159372247Y-75067109D01*
X159372244Y-75067110D01*
X159367266Y-75069432D01*
X159362769Y-75072580D01*
X159362760Y-75072586D01*
X159185372Y-75196793D01*
X159185361Y-75196801D01*
X159180861Y-75199953D01*
X159176971Y-75203842D01*
X159176965Y-75203848D01*
X159023848Y-75356965D01*
X159023842Y-75356971D01*
X159019953Y-75360861D01*
X159016801Y-75365361D01*
X159016793Y-75365372D01*
X158892586Y-75542760D01*
X158892580Y-75542769D01*
X158889432Y-75547266D01*
X158887110Y-75552244D01*
X158887109Y-75552247D01*
X158795584Y-75748521D01*
X158795581Y-75748527D01*
X158793261Y-75753504D01*
X158791839Y-75758808D01*
X158791838Y-75758813D01*
X158747705Y-75923521D01*
X158734365Y-75973308D01*
X158733886Y-75978781D01*
X158733885Y-75978788D01*
X158715011Y-76194525D01*
X158714532Y-76200000D01*
X143908000Y-76200000D01*
X143908000Y-75994777D01*
X143907640Y-75988061D01*
X143902337Y-75938742D01*
X143898740Y-75923521D01*
X143853594Y-75802480D01*
X143845045Y-75786824D01*
X143768302Y-75684307D01*
X143755692Y-75671697D01*
X143653175Y-75594954D01*
X143637519Y-75586405D01*
X143516478Y-75541259D01*
X143501257Y-75537662D01*
X143451938Y-75532359D01*
X143445223Y-75532000D01*
X142720590Y-75532000D01*
X142707506Y-75535506D01*
X142704000Y-75548590D01*
X142704000Y-78469410D01*
X142196000Y-78469410D01*
X142196000Y-75548590D01*
X142192493Y-75535506D01*
X142179410Y-75532000D01*
X141454777Y-75532000D01*
X141448061Y-75532359D01*
X141398742Y-75537662D01*
X141383521Y-75541259D01*
X141262480Y-75586405D01*
X141246824Y-75594954D01*
X141144307Y-75671697D01*
X141131697Y-75684307D01*
X141054954Y-75786824D01*
X141046405Y-75802480D01*
X141001259Y-75923521D01*
X140997662Y-75938742D01*
X140992359Y-75988061D01*
X140992000Y-75994777D01*
X140992000Y-78469410D01*
X138408500Y-78469410D01*
X138408500Y-75991362D01*
X138401989Y-75930799D01*
X138350889Y-75793796D01*
X138316996Y-75748521D01*
X138268659Y-75683950D01*
X138263261Y-75676739D01*
X138256049Y-75671340D01*
X138153417Y-75594510D01*
X138153414Y-75594508D01*
X138146204Y-75589111D01*
X138137766Y-75585964D01*
X138137763Y-75585962D01*
X138016580Y-75540763D01*
X138016578Y-75540762D01*
X138009201Y-75538011D01*
X138001373Y-75537169D01*
X138001367Y-75537168D01*
X137951988Y-75531860D01*
X137951985Y-75531859D01*
X137948638Y-75531500D01*
X135951362Y-75531500D01*
X135948015Y-75531859D01*
X135948011Y-75531860D01*
X135898632Y-75537168D01*
X135898625Y-75537169D01*
X135890799Y-75538011D01*
X135883423Y-75540761D01*
X135883419Y-75540763D01*
X135762236Y-75585962D01*
X135762230Y-75585965D01*
X135753796Y-75589111D01*
X135746588Y-75594506D01*
X135746582Y-75594510D01*
X135643950Y-75671340D01*
X135643946Y-75671343D01*
X135636739Y-75676739D01*
X135631343Y-75683946D01*
X135631340Y-75683950D01*
X135554510Y-75786582D01*
X135554506Y-75786588D01*
X135549111Y-75793796D01*
X135545965Y-75802230D01*
X135545962Y-75802236D01*
X135500763Y-75923419D01*
X135500761Y-75923423D01*
X135498011Y-75930799D01*
X135497169Y-75938625D01*
X135497168Y-75938632D01*
X135491860Y-75988011D01*
X135491500Y-75991362D01*
X135491500Y-81488638D01*
X135491859Y-81491985D01*
X135491860Y-81491988D01*
X135497168Y-81541367D01*
X135497169Y-81541373D01*
X135498011Y-81549201D01*
X135500762Y-81556578D01*
X135500763Y-81556580D01*
X135545962Y-81677763D01*
X135545964Y-81677766D01*
X135549111Y-81686204D01*
X135554508Y-81693414D01*
X135554510Y-81693417D01*
X135631073Y-81795692D01*
X135636739Y-81803261D01*
X135753796Y-81890889D01*
X135890799Y-81941989D01*
X135951362Y-81948500D01*
X135960500Y-81948500D01*
X136023500Y-81965381D01*
X136069619Y-82011500D01*
X136086500Y-82074500D01*
X136086500Y-82986000D01*
X136069619Y-83049000D01*
X136023500Y-83095119D01*
X135960500Y-83112000D01*
X135940590Y-83112000D01*
X135927506Y-83115506D01*
X135924000Y-83128590D01*
X135924000Y-83500040D01*
X135920659Y-83528696D01*
X135918011Y-83535799D01*
X135917169Y-83543625D01*
X135917168Y-83543632D01*
X135911860Y-83593011D01*
X135911500Y-83596362D01*
X135911500Y-84043638D01*
X135911859Y-84046985D01*
X135911860Y-84046988D01*
X135917168Y-84096367D01*
X135917169Y-84096373D01*
X135918011Y-84104201D01*
X135920659Y-84111303D01*
X135924000Y-84139960D01*
X135924000Y-84150040D01*
X135920659Y-84178696D01*
X135918011Y-84185799D01*
X135917169Y-84193625D01*
X135917168Y-84193632D01*
X135911860Y-84243011D01*
X135911500Y-84246362D01*
X135911500Y-84693638D01*
X135911859Y-84696985D01*
X135911860Y-84696988D01*
X135917168Y-84746367D01*
X135917169Y-84746373D01*
X135918011Y-84754201D01*
X135920659Y-84761303D01*
X135924000Y-84789960D01*
X135924000Y-84928410D01*
X135927506Y-84941493D01*
X135940590Y-84945000D01*
X135946311Y-84945000D01*
X136002709Y-84958327D01*
X136047177Y-84995488D01*
X136050658Y-85000138D01*
X136056739Y-85008261D01*
X136083111Y-85028003D01*
X136136717Y-85068132D01*
X136175822Y-85116658D01*
X136186887Y-85177989D01*
X136167206Y-85237121D01*
X136121593Y-85279588D01*
X136061208Y-85295000D01*
X135940590Y-85295000D01*
X135927506Y-85298506D01*
X135924000Y-85311590D01*
X135924000Y-85811410D01*
X135927506Y-85824493D01*
X135956612Y-85832293D01*
X135956501Y-85832704D01*
X135994107Y-85841733D01*
X136038840Y-85879939D01*
X136061353Y-85934290D01*
X136056737Y-85992936D01*
X136026000Y-86043093D01*
X135953722Y-86115372D01*
X135887742Y-86181352D01*
X135879459Y-86188888D01*
X135872982Y-86193000D01*
X135867563Y-86198769D01*
X135867555Y-86198777D01*
X135826370Y-86242635D01*
X135823621Y-86245472D01*
X135806667Y-86262427D01*
X135806660Y-86262434D01*
X135803865Y-86265230D01*
X135801442Y-86268352D01*
X135801426Y-86268371D01*
X135801365Y-86268451D01*
X135793690Y-86277435D01*
X135768838Y-86303902D01*
X135768835Y-86303904D01*
X135763414Y-86309679D01*
X135759600Y-86316614D01*
X135759592Y-86316627D01*
X135753650Y-86327436D01*
X135742803Y-86343949D01*
X135735243Y-86353695D01*
X135735237Y-86353704D01*
X135730386Y-86359959D01*
X135727242Y-86367223D01*
X135727238Y-86367231D01*
X135712824Y-86400540D01*
X135707604Y-86411195D01*
X135690125Y-86442989D01*
X135690121Y-86442997D01*
X135686305Y-86449940D01*
X135684333Y-86457616D01*
X135684331Y-86457624D01*
X135681266Y-86469562D01*
X135674865Y-86488259D01*
X135669968Y-86499576D01*
X135669966Y-86499581D01*
X135666819Y-86506855D01*
X135665579Y-86514680D01*
X135665577Y-86514689D01*
X135659901Y-86550524D01*
X135657495Y-86562144D01*
X135648471Y-86597289D01*
X135648469Y-86597297D01*
X135646500Y-86604970D01*
X135646500Y-86612899D01*
X135646500Y-86625224D01*
X135644949Y-86644935D01*
X135643019Y-86657114D01*
X135643018Y-86657121D01*
X135641780Y-86664943D01*
X135642525Y-86672826D01*
X135642525Y-86672834D01*
X135645941Y-86708961D01*
X135646500Y-86720819D01*
X135646500Y-88122674D01*
X135633175Y-88179069D01*
X135604155Y-88213796D01*
X135605325Y-88214966D01*
X135598949Y-88221341D01*
X135591739Y-88226739D01*
X135586343Y-88233946D01*
X135586340Y-88233950D01*
X135509510Y-88336582D01*
X135509506Y-88336588D01*
X135504111Y-88343796D01*
X135500964Y-88352231D01*
X135500960Y-88352240D01*
X135497555Y-88361371D01*
X135456441Y-88417117D01*
X135392073Y-88442708D01*
X135323906Y-88430409D01*
X135272540Y-88383937D01*
X135253500Y-88317337D01*
X135253500Y-85954000D01*
X135270381Y-85891000D01*
X135316500Y-85844881D01*
X135379500Y-85828000D01*
X135399410Y-85828000D01*
X135412493Y-85824493D01*
X135416000Y-85811410D01*
X135416000Y-85439960D01*
X135419340Y-85411303D01*
X135421989Y-85404201D01*
X135428500Y-85343638D01*
X135428500Y-84896362D01*
X135421989Y-84835799D01*
X135419339Y-84828695D01*
X135416000Y-84800042D01*
X135416000Y-84789958D01*
X135419339Y-84761304D01*
X135421989Y-84754201D01*
X135428500Y-84693638D01*
X135428500Y-84246362D01*
X135421989Y-84185799D01*
X135419339Y-84178695D01*
X135416000Y-84150042D01*
X135416000Y-84139958D01*
X135419339Y-84111304D01*
X135421989Y-84104201D01*
X135428500Y-84043638D01*
X135428500Y-83596362D01*
X135421989Y-83535799D01*
X135419340Y-83528696D01*
X135416000Y-83500040D01*
X135416000Y-83128590D01*
X135412493Y-83115506D01*
X135399410Y-83112000D01*
X135074777Y-83112000D01*
X135068061Y-83112359D01*
X135018742Y-83117662D01*
X135003521Y-83121259D01*
X134983958Y-83128556D01*
X134939926Y-83136500D01*
X134271362Y-83136500D01*
X134268015Y-83136859D01*
X134268011Y-83136860D01*
X134218642Y-83142167D01*
X134218635Y-83142168D01*
X134210799Y-83143011D01*
X134203409Y-83145767D01*
X134203406Y-83145768D01*
X134115503Y-83178555D01*
X134071470Y-83186500D01*
X133089595Y-83186500D01*
X133041377Y-83176909D01*
X133000500Y-83149595D01*
X132585820Y-82734915D01*
X132552038Y-82673701D01*
X132556093Y-82603901D01*
X132596734Y-82547009D01*
X132661448Y-82520542D01*
X132691256Y-82517337D01*
X132706478Y-82513740D01*
X132827519Y-82468594D01*
X132843175Y-82460045D01*
X132945692Y-82383302D01*
X132958302Y-82370692D01*
X133035045Y-82268175D01*
X133043594Y-82252519D01*
X133088740Y-82131478D01*
X133092337Y-82116257D01*
X133097640Y-82066938D01*
X133098000Y-82060223D01*
X133098000Y-81550590D01*
X133094493Y-81537506D01*
X133081410Y-81534000D01*
X131952000Y-81534000D01*
X131889000Y-81517119D01*
X131842881Y-81471000D01*
X131826000Y-81408000D01*
X131826000Y-81009410D01*
X132334000Y-81009410D01*
X132337506Y-81022493D01*
X132350590Y-81026000D01*
X133081410Y-81026000D01*
X133094493Y-81022493D01*
X133098000Y-81009410D01*
X133098000Y-80499777D01*
X133097640Y-80493061D01*
X133092337Y-80443742D01*
X133088740Y-80428521D01*
X133043594Y-80307480D01*
X133035045Y-80291824D01*
X132958302Y-80189307D01*
X132945692Y-80176697D01*
X132843175Y-80099954D01*
X132827519Y-80091405D01*
X132706478Y-80046259D01*
X132691257Y-80042662D01*
X132641938Y-80037359D01*
X132635223Y-80037000D01*
X132350590Y-80037000D01*
X132337506Y-80040506D01*
X132334000Y-80053590D01*
X132334000Y-81009410D01*
X131826000Y-81009410D01*
X131826000Y-80053590D01*
X131822493Y-80040506D01*
X131809410Y-80037000D01*
X131524777Y-80037000D01*
X131518061Y-80037359D01*
X131468742Y-80042662D01*
X131453521Y-80046259D01*
X131332474Y-80091407D01*
X131330898Y-80092268D01*
X131328584Y-80092858D01*
X131324038Y-80094554D01*
X131323855Y-80094064D01*
X131270519Y-80107673D01*
X131216306Y-80093835D01*
X131216204Y-80094111D01*
X131213641Y-80093155D01*
X131213640Y-80093154D01*
X131207762Y-80090962D01*
X131207760Y-80090961D01*
X131086580Y-80045763D01*
X131086578Y-80045762D01*
X131079201Y-80043011D01*
X131071373Y-80042169D01*
X131071367Y-80042168D01*
X131021988Y-80036860D01*
X131021985Y-80036859D01*
X131018638Y-80036500D01*
X129901362Y-80036500D01*
X129898015Y-80036859D01*
X129898011Y-80036860D01*
X129848632Y-80042168D01*
X129848625Y-80042169D01*
X129840799Y-80043011D01*
X129833423Y-80045761D01*
X129833419Y-80045763D01*
X129712236Y-80090962D01*
X129712230Y-80090965D01*
X129703796Y-80094111D01*
X129696588Y-80099506D01*
X129696582Y-80099510D01*
X129593950Y-80176340D01*
X129593946Y-80176343D01*
X129586739Y-80181739D01*
X129581343Y-80188946D01*
X129581340Y-80188950D01*
X129504510Y-80291582D01*
X129504506Y-80291588D01*
X129499111Y-80298796D01*
X129495965Y-80307230D01*
X129495962Y-80307236D01*
X129450763Y-80428419D01*
X129450761Y-80428423D01*
X129448011Y-80435799D01*
X129447169Y-80443625D01*
X129447168Y-80443632D01*
X129441860Y-80493011D01*
X129441500Y-80496362D01*
X129441500Y-82063638D01*
X129441859Y-82066985D01*
X129441860Y-82066988D01*
X129447168Y-82116367D01*
X129447169Y-82116373D01*
X129448011Y-82124201D01*
X129450762Y-82131578D01*
X129450763Y-82131580D01*
X129495962Y-82252763D01*
X129495964Y-82252766D01*
X129499111Y-82261204D01*
X129504508Y-82268414D01*
X129504510Y-82268417D01*
X129556712Y-82338150D01*
X129586739Y-82378261D01*
X129703796Y-82465889D01*
X129840799Y-82516989D01*
X129901362Y-82523500D01*
X130530406Y-82523500D01*
X130578624Y-82533091D01*
X130619501Y-82560405D01*
X131030501Y-82971405D01*
X131061239Y-83021564D01*
X131065855Y-83080211D01*
X131043342Y-83134561D01*
X130998609Y-83172767D01*
X130941406Y-83186500D01*
X124346108Y-83186500D01*
X124281611Y-83168741D01*
X124235294Y-83120469D01*
X124171274Y-83002171D01*
X124171272Y-83002168D01*
X124168794Y-82997589D01*
X124141647Y-82962711D01*
X124019461Y-82805726D01*
X124019459Y-82805724D01*
X124016261Y-82801615D01*
X124012428Y-82798087D01*
X124012424Y-82798082D01*
X123837392Y-82636955D01*
X123833552Y-82633420D01*
X123829190Y-82630570D01*
X123829186Y-82630567D01*
X123630013Y-82500441D01*
X123630011Y-82500440D01*
X123625652Y-82497592D01*
X123571754Y-82473950D01*
X123403000Y-82399927D01*
X123402996Y-82399925D01*
X123398230Y-82397835D01*
X123393186Y-82396557D01*
X123393184Y-82396557D01*
X123162540Y-82338150D01*
X123162530Y-82338148D01*
X123157490Y-82336872D01*
X123152305Y-82336442D01*
X123152297Y-82336441D01*
X122974581Y-82321715D01*
X122974570Y-82321714D01*
X122971981Y-82321500D01*
X120868019Y-82321500D01*
X120865430Y-82321714D01*
X120865418Y-82321715D01*
X120687702Y-82336441D01*
X120687692Y-82336442D01*
X120682510Y-82336872D01*
X120677471Y-82338147D01*
X120677459Y-82338150D01*
X120446815Y-82396557D01*
X120446810Y-82396558D01*
X120441770Y-82397835D01*
X120437007Y-82399924D01*
X120436999Y-82399927D01*
X120219121Y-82495498D01*
X120219117Y-82495499D01*
X120214348Y-82497592D01*
X120209993Y-82500436D01*
X120209986Y-82500441D01*
X120010813Y-82630567D01*
X120010803Y-82630574D01*
X120006448Y-82633420D01*
X120002613Y-82636950D01*
X120002607Y-82636955D01*
X119827575Y-82798082D01*
X119827564Y-82798093D01*
X119823739Y-82801615D01*
X119820546Y-82805717D01*
X119820538Y-82805726D01*
X119674405Y-82993478D01*
X119674404Y-82993480D01*
X119671206Y-82997589D01*
X119668728Y-83002167D01*
X119668726Y-83002171D01*
X119555491Y-83211410D01*
X119555487Y-83211418D01*
X119553010Y-83215996D01*
X119551321Y-83220914D01*
X119551316Y-83220927D01*
X119474067Y-83445948D01*
X119474064Y-83445956D01*
X119472375Y-83450879D01*
X119471518Y-83456012D01*
X119471517Y-83456018D01*
X119448098Y-83596362D01*
X119431500Y-83695831D01*
X119431500Y-83944169D01*
X113665500Y-83944169D01*
X113665500Y-76200000D01*
X120614532Y-76200000D01*
X120634365Y-76426692D01*
X120693261Y-76646496D01*
X120789432Y-76852734D01*
X120792584Y-76857235D01*
X120792586Y-76857239D01*
X120916793Y-77034627D01*
X120916797Y-77034631D01*
X120919953Y-77039139D01*
X121080861Y-77200047D01*
X121085369Y-77203203D01*
X121085372Y-77203206D01*
X121262760Y-77327413D01*
X121267266Y-77330568D01*
X121473504Y-77426739D01*
X121693308Y-77485635D01*
X121863216Y-77500500D01*
X121974044Y-77500500D01*
X121976784Y-77500500D01*
X122146692Y-77485635D01*
X122366496Y-77426739D01*
X122572734Y-77330568D01*
X122759139Y-77200047D01*
X122920047Y-77039139D01*
X123050568Y-76852734D01*
X123146739Y-76646496D01*
X123205635Y-76426692D01*
X123225468Y-76200000D01*
X123205635Y-75973308D01*
X123146739Y-75753504D01*
X123050568Y-75547266D01*
X122920047Y-75360861D01*
X122759139Y-75199953D01*
X122754631Y-75196797D01*
X122754627Y-75196793D01*
X122577239Y-75072586D01*
X122577235Y-75072584D01*
X122572734Y-75069432D01*
X122366496Y-74973261D01*
X122361188Y-74971838D01*
X122361186Y-74971838D01*
X122152006Y-74915789D01*
X122152007Y-74915789D01*
X122146692Y-74914365D01*
X122141216Y-74913885D01*
X122141211Y-74913885D01*
X121979507Y-74899738D01*
X121979501Y-74899737D01*
X121976784Y-74899500D01*
X121863216Y-74899500D01*
X121860499Y-74899737D01*
X121860492Y-74899738D01*
X121698788Y-74913885D01*
X121698781Y-74913886D01*
X121693308Y-74914365D01*
X121687994Y-74915788D01*
X121687993Y-74915789D01*
X121478813Y-74971838D01*
X121478808Y-74971839D01*
X121473504Y-74973261D01*
X121468527Y-74975581D01*
X121468521Y-74975584D01*
X121272247Y-75067109D01*
X121272244Y-75067110D01*
X121267266Y-75069432D01*
X121262769Y-75072580D01*
X121262760Y-75072586D01*
X121085372Y-75196793D01*
X121085361Y-75196801D01*
X121080861Y-75199953D01*
X121076971Y-75203842D01*
X121076965Y-75203848D01*
X120923848Y-75356965D01*
X120923842Y-75356971D01*
X120919953Y-75360861D01*
X120916801Y-75365361D01*
X120916793Y-75365372D01*
X120792586Y-75542760D01*
X120792580Y-75542769D01*
X120789432Y-75547266D01*
X120787110Y-75552244D01*
X120787109Y-75552247D01*
X120695584Y-75748521D01*
X120695581Y-75748527D01*
X120693261Y-75753504D01*
X120691839Y-75758808D01*
X120691838Y-75758813D01*
X120647705Y-75923521D01*
X120634365Y-75973308D01*
X120633886Y-75978781D01*
X120633885Y-75978788D01*
X120615011Y-76194525D01*
X120614532Y-76200000D01*
X113665500Y-76200000D01*
X113665500Y-73049900D01*
X113682381Y-72986900D01*
X113728500Y-72940781D01*
X113791500Y-72923900D01*
X165328501Y-72923900D01*
X165328699Y-72923900D01*
X167437300Y-72923900D01*
X167500300Y-72940781D01*
G37*
%TD.AperFunction*%
%TD*%
M02*
