%TF.GenerationSoftware,KiCad,Pcbnew,(6.99.0-5210-g1b15854da5)*%
%TF.CreationDate,2023-02-20T10:04:08+05:30*%
%TF.ProjectId,Prot_Circ,50726f74-5f43-4697-9263-2e6b69636164,rev?*%
%TF.SameCoordinates,Original*%
%TF.FileFunction,Drillmap*%
%TF.FilePolarity,Positive*%
%FSLAX45Y45*%
G04 Gerber Fmt 4.5, Leading zero omitted, Abs format (unit mm)*
G04 Created by KiCad (PCBNEW (6.99.0-5210-g1b15854da5)) date 2023-02-20 10:04:08*
%MOMM*%
%LPD*%
G01*
G04 APERTURE LIST*
%ADD10C,0.100000*%
%ADD11C,0.200000*%
%ADD12C,0.210000*%
G04 APERTURE END LIST*
D10*
X11366500Y-7292340D02*
X16532860Y-7292340D01*
X16756380Y-10129520D02*
X11366500Y-10129520D01*
X11366500Y-10129520D02*
X11366500Y-7292340D01*
X16756380Y-7292340D02*
X16756380Y-10129520D01*
X16532860Y-7292340D02*
X16756380Y-7292340D01*
D11*
D12*
X12087000Y-7515000D02*
X12297000Y-7725000D01*
X12297000Y-7515000D02*
X12087000Y-7725000D01*
X12087000Y-9547000D02*
X12297000Y-9757000D01*
X12297000Y-9547000D02*
X12087000Y-9757000D01*
X15897000Y-7515000D02*
X16107000Y-7725000D01*
X16107000Y-7515000D02*
X15897000Y-7725000D01*
X15897000Y-9547000D02*
X16107000Y-9757000D01*
X16107000Y-9547000D02*
X15897000Y-9757000D01*
D11*
X11609119Y-10427996D02*
X11609119Y-10227996D01*
X11609119Y-10227996D02*
X11656738Y-10227996D01*
X11656738Y-10227996D02*
X11685309Y-10237520D01*
X11685309Y-10237520D02*
X11704357Y-10256568D01*
X11704357Y-10256568D02*
X11713881Y-10275615D01*
X11713881Y-10275615D02*
X11723405Y-10313710D01*
X11723405Y-10313710D02*
X11723405Y-10342282D01*
X11723405Y-10342282D02*
X11713881Y-10380377D01*
X11713881Y-10380377D02*
X11704357Y-10399425D01*
X11704357Y-10399425D02*
X11685309Y-10418472D01*
X11685309Y-10418472D02*
X11656738Y-10427996D01*
X11656738Y-10427996D02*
X11609119Y-10427996D01*
X11809119Y-10427996D02*
X11809119Y-10294663D01*
X11809119Y-10332758D02*
X11818643Y-10313710D01*
X11818643Y-10313710D02*
X11828167Y-10304187D01*
X11828167Y-10304187D02*
X11847214Y-10294663D01*
X11847214Y-10294663D02*
X11866262Y-10294663D01*
X11932928Y-10427996D02*
X11932928Y-10294663D01*
X11932928Y-10227996D02*
X11923405Y-10237520D01*
X11923405Y-10237520D02*
X11932928Y-10247044D01*
X11932928Y-10247044D02*
X11942452Y-10237520D01*
X11942452Y-10237520D02*
X11932928Y-10227996D01*
X11932928Y-10227996D02*
X11932928Y-10247044D01*
X12056738Y-10427996D02*
X12037690Y-10418472D01*
X12037690Y-10418472D02*
X12028167Y-10399425D01*
X12028167Y-10399425D02*
X12028167Y-10227996D01*
X12161500Y-10427996D02*
X12142452Y-10418472D01*
X12142452Y-10418472D02*
X12132928Y-10399425D01*
X12132928Y-10399425D02*
X12132928Y-10227996D01*
X12357690Y-10427996D02*
X12357690Y-10227996D01*
X12357690Y-10227996D02*
X12424357Y-10370853D01*
X12424357Y-10370853D02*
X12491024Y-10227996D01*
X12491024Y-10227996D02*
X12491024Y-10427996D01*
X12671976Y-10427996D02*
X12671976Y-10323234D01*
X12671976Y-10323234D02*
X12662452Y-10304187D01*
X12662452Y-10304187D02*
X12643405Y-10294663D01*
X12643405Y-10294663D02*
X12605309Y-10294663D01*
X12605309Y-10294663D02*
X12586262Y-10304187D01*
X12671976Y-10418472D02*
X12652928Y-10427996D01*
X12652928Y-10427996D02*
X12605309Y-10427996D01*
X12605309Y-10427996D02*
X12586262Y-10418472D01*
X12586262Y-10418472D02*
X12576738Y-10399425D01*
X12576738Y-10399425D02*
X12576738Y-10380377D01*
X12576738Y-10380377D02*
X12586262Y-10361330D01*
X12586262Y-10361330D02*
X12605309Y-10351806D01*
X12605309Y-10351806D02*
X12652928Y-10351806D01*
X12652928Y-10351806D02*
X12671976Y-10342282D01*
X12767214Y-10294663D02*
X12767214Y-10494663D01*
X12767214Y-10304187D02*
X12786262Y-10294663D01*
X12786262Y-10294663D02*
X12824357Y-10294663D01*
X12824357Y-10294663D02*
X12843405Y-10304187D01*
X12843405Y-10304187D02*
X12852928Y-10313710D01*
X12852928Y-10313710D02*
X12862452Y-10332758D01*
X12862452Y-10332758D02*
X12862452Y-10389901D01*
X12862452Y-10389901D02*
X12852928Y-10408949D01*
X12852928Y-10408949D02*
X12843405Y-10418472D01*
X12843405Y-10418472D02*
X12824357Y-10427996D01*
X12824357Y-10427996D02*
X12786262Y-10427996D01*
X12786262Y-10427996D02*
X12767214Y-10418472D01*
X12948167Y-10408949D02*
X12957690Y-10418472D01*
X12957690Y-10418472D02*
X12948167Y-10427996D01*
X12948167Y-10427996D02*
X12938643Y-10418472D01*
X12938643Y-10418472D02*
X12948167Y-10408949D01*
X12948167Y-10408949D02*
X12948167Y-10427996D01*
X12948167Y-10304187D02*
X12957690Y-10313710D01*
X12957690Y-10313710D02*
X12948167Y-10323234D01*
X12948167Y-10323234D02*
X12938643Y-10313710D01*
X12938643Y-10313710D02*
X12948167Y-10304187D01*
X12948167Y-10304187D02*
X12948167Y-10323234D01*
X11161500Y-10674520D02*
X11361500Y-10874520D01*
X11361500Y-10674520D02*
X11161500Y-10874520D01*
X11599595Y-10667044D02*
X11609119Y-10657520D01*
X11609119Y-10657520D02*
X11628167Y-10647996D01*
X11628167Y-10647996D02*
X11675786Y-10647996D01*
X11675786Y-10647996D02*
X11694833Y-10657520D01*
X11694833Y-10657520D02*
X11704357Y-10667044D01*
X11704357Y-10667044D02*
X11713881Y-10686091D01*
X11713881Y-10686091D02*
X11713881Y-10705139D01*
X11713881Y-10705139D02*
X11704357Y-10733710D01*
X11704357Y-10733710D02*
X11590071Y-10847996D01*
X11590071Y-10847996D02*
X11713881Y-10847996D01*
X11799595Y-10828949D02*
X11809119Y-10838472D01*
X11809119Y-10838472D02*
X11799595Y-10847996D01*
X11799595Y-10847996D02*
X11790071Y-10838472D01*
X11790071Y-10838472D02*
X11799595Y-10828949D01*
X11799595Y-10828949D02*
X11799595Y-10847996D01*
X11999595Y-10847996D02*
X11885309Y-10847996D01*
X11942452Y-10847996D02*
X11942452Y-10647996D01*
X11942452Y-10647996D02*
X11923405Y-10676568D01*
X11923405Y-10676568D02*
X11904357Y-10695615D01*
X11904357Y-10695615D02*
X11885309Y-10705139D01*
X12123405Y-10647996D02*
X12142452Y-10647996D01*
X12142452Y-10647996D02*
X12161500Y-10657520D01*
X12161500Y-10657520D02*
X12171024Y-10667044D01*
X12171024Y-10667044D02*
X12180548Y-10686091D01*
X12180548Y-10686091D02*
X12190071Y-10724187D01*
X12190071Y-10724187D02*
X12190071Y-10771806D01*
X12190071Y-10771806D02*
X12180548Y-10809901D01*
X12180548Y-10809901D02*
X12171024Y-10828949D01*
X12171024Y-10828949D02*
X12161500Y-10838472D01*
X12161500Y-10838472D02*
X12142452Y-10847996D01*
X12142452Y-10847996D02*
X12123405Y-10847996D01*
X12123405Y-10847996D02*
X12104357Y-10838472D01*
X12104357Y-10838472D02*
X12094833Y-10828949D01*
X12094833Y-10828949D02*
X12085309Y-10809901D01*
X12085309Y-10809901D02*
X12075786Y-10771806D01*
X12075786Y-10771806D02*
X12075786Y-10724187D01*
X12075786Y-10724187D02*
X12085309Y-10686091D01*
X12085309Y-10686091D02*
X12094833Y-10667044D01*
X12094833Y-10667044D02*
X12104357Y-10657520D01*
X12104357Y-10657520D02*
X12123405Y-10647996D01*
X12313881Y-10647996D02*
X12332929Y-10647996D01*
X12332929Y-10647996D02*
X12351976Y-10657520D01*
X12351976Y-10657520D02*
X12361500Y-10667044D01*
X12361500Y-10667044D02*
X12371024Y-10686091D01*
X12371024Y-10686091D02*
X12380548Y-10724187D01*
X12380548Y-10724187D02*
X12380548Y-10771806D01*
X12380548Y-10771806D02*
X12371024Y-10809901D01*
X12371024Y-10809901D02*
X12361500Y-10828949D01*
X12361500Y-10828949D02*
X12351976Y-10838472D01*
X12351976Y-10838472D02*
X12332929Y-10847996D01*
X12332929Y-10847996D02*
X12313881Y-10847996D01*
X12313881Y-10847996D02*
X12294833Y-10838472D01*
X12294833Y-10838472D02*
X12285309Y-10828949D01*
X12285309Y-10828949D02*
X12275786Y-10809901D01*
X12275786Y-10809901D02*
X12266262Y-10771806D01*
X12266262Y-10771806D02*
X12266262Y-10724187D01*
X12266262Y-10724187D02*
X12275786Y-10686091D01*
X12275786Y-10686091D02*
X12285309Y-10667044D01*
X12285309Y-10667044D02*
X12294833Y-10657520D01*
X12294833Y-10657520D02*
X12313881Y-10647996D01*
X12466262Y-10847996D02*
X12466262Y-10714663D01*
X12466262Y-10733710D02*
X12475786Y-10724187D01*
X12475786Y-10724187D02*
X12494833Y-10714663D01*
X12494833Y-10714663D02*
X12523405Y-10714663D01*
X12523405Y-10714663D02*
X12542452Y-10724187D01*
X12542452Y-10724187D02*
X12551976Y-10743234D01*
X12551976Y-10743234D02*
X12551976Y-10847996D01*
X12551976Y-10743234D02*
X12561500Y-10724187D01*
X12561500Y-10724187D02*
X12580548Y-10714663D01*
X12580548Y-10714663D02*
X12609119Y-10714663D01*
X12609119Y-10714663D02*
X12628167Y-10724187D01*
X12628167Y-10724187D02*
X12637690Y-10743234D01*
X12637690Y-10743234D02*
X12637690Y-10847996D01*
X12732929Y-10847996D02*
X12732929Y-10714663D01*
X12732929Y-10733710D02*
X12742452Y-10724187D01*
X12742452Y-10724187D02*
X12761500Y-10714663D01*
X12761500Y-10714663D02*
X12790071Y-10714663D01*
X12790071Y-10714663D02*
X12809119Y-10724187D01*
X12809119Y-10724187D02*
X12818643Y-10743234D01*
X12818643Y-10743234D02*
X12818643Y-10847996D01*
X12818643Y-10743234D02*
X12828167Y-10724187D01*
X12828167Y-10724187D02*
X12847214Y-10714663D01*
X12847214Y-10714663D02*
X12875786Y-10714663D01*
X12875786Y-10714663D02*
X12894833Y-10724187D01*
X12894833Y-10724187D02*
X12904357Y-10743234D01*
X12904357Y-10743234D02*
X12904357Y-10847996D01*
X13262452Y-10638472D02*
X13091024Y-10895615D01*
X13487214Y-10647996D02*
X13506262Y-10647996D01*
X13506262Y-10647996D02*
X13525310Y-10657520D01*
X13525310Y-10657520D02*
X13534833Y-10667044D01*
X13534833Y-10667044D02*
X13544357Y-10686091D01*
X13544357Y-10686091D02*
X13553881Y-10724187D01*
X13553881Y-10724187D02*
X13553881Y-10771806D01*
X13553881Y-10771806D02*
X13544357Y-10809901D01*
X13544357Y-10809901D02*
X13534833Y-10828949D01*
X13534833Y-10828949D02*
X13525310Y-10838472D01*
X13525310Y-10838472D02*
X13506262Y-10847996D01*
X13506262Y-10847996D02*
X13487214Y-10847996D01*
X13487214Y-10847996D02*
X13468167Y-10838472D01*
X13468167Y-10838472D02*
X13458643Y-10828949D01*
X13458643Y-10828949D02*
X13449119Y-10809901D01*
X13449119Y-10809901D02*
X13439595Y-10771806D01*
X13439595Y-10771806D02*
X13439595Y-10724187D01*
X13439595Y-10724187D02*
X13449119Y-10686091D01*
X13449119Y-10686091D02*
X13458643Y-10667044D01*
X13458643Y-10667044D02*
X13468167Y-10657520D01*
X13468167Y-10657520D02*
X13487214Y-10647996D01*
X13639595Y-10828949D02*
X13649119Y-10838472D01*
X13649119Y-10838472D02*
X13639595Y-10847996D01*
X13639595Y-10847996D02*
X13630071Y-10838472D01*
X13630071Y-10838472D02*
X13639595Y-10828949D01*
X13639595Y-10828949D02*
X13639595Y-10847996D01*
X13772929Y-10647996D02*
X13791976Y-10647996D01*
X13791976Y-10647996D02*
X13811024Y-10657520D01*
X13811024Y-10657520D02*
X13820548Y-10667044D01*
X13820548Y-10667044D02*
X13830071Y-10686091D01*
X13830071Y-10686091D02*
X13839595Y-10724187D01*
X13839595Y-10724187D02*
X13839595Y-10771806D01*
X13839595Y-10771806D02*
X13830071Y-10809901D01*
X13830071Y-10809901D02*
X13820548Y-10828949D01*
X13820548Y-10828949D02*
X13811024Y-10838472D01*
X13811024Y-10838472D02*
X13791976Y-10847996D01*
X13791976Y-10847996D02*
X13772929Y-10847996D01*
X13772929Y-10847996D02*
X13753881Y-10838472D01*
X13753881Y-10838472D02*
X13744357Y-10828949D01*
X13744357Y-10828949D02*
X13734833Y-10809901D01*
X13734833Y-10809901D02*
X13725310Y-10771806D01*
X13725310Y-10771806D02*
X13725310Y-10724187D01*
X13725310Y-10724187D02*
X13734833Y-10686091D01*
X13734833Y-10686091D02*
X13744357Y-10667044D01*
X13744357Y-10667044D02*
X13753881Y-10657520D01*
X13753881Y-10657520D02*
X13772929Y-10647996D01*
X13953881Y-10733710D02*
X13934833Y-10724187D01*
X13934833Y-10724187D02*
X13925310Y-10714663D01*
X13925310Y-10714663D02*
X13915786Y-10695615D01*
X13915786Y-10695615D02*
X13915786Y-10686091D01*
X13915786Y-10686091D02*
X13925310Y-10667044D01*
X13925310Y-10667044D02*
X13934833Y-10657520D01*
X13934833Y-10657520D02*
X13953881Y-10647996D01*
X13953881Y-10647996D02*
X13991976Y-10647996D01*
X13991976Y-10647996D02*
X14011024Y-10657520D01*
X14011024Y-10657520D02*
X14020548Y-10667044D01*
X14020548Y-10667044D02*
X14030071Y-10686091D01*
X14030071Y-10686091D02*
X14030071Y-10695615D01*
X14030071Y-10695615D02*
X14020548Y-10714663D01*
X14020548Y-10714663D02*
X14011024Y-10724187D01*
X14011024Y-10724187D02*
X13991976Y-10733710D01*
X13991976Y-10733710D02*
X13953881Y-10733710D01*
X13953881Y-10733710D02*
X13934833Y-10743234D01*
X13934833Y-10743234D02*
X13925310Y-10752758D01*
X13925310Y-10752758D02*
X13915786Y-10771806D01*
X13915786Y-10771806D02*
X13915786Y-10809901D01*
X13915786Y-10809901D02*
X13925310Y-10828949D01*
X13925310Y-10828949D02*
X13934833Y-10838472D01*
X13934833Y-10838472D02*
X13953881Y-10847996D01*
X13953881Y-10847996D02*
X13991976Y-10847996D01*
X13991976Y-10847996D02*
X14011024Y-10838472D01*
X14011024Y-10838472D02*
X14020548Y-10828949D01*
X14020548Y-10828949D02*
X14030071Y-10809901D01*
X14030071Y-10809901D02*
X14030071Y-10771806D01*
X14030071Y-10771806D02*
X14020548Y-10752758D01*
X14020548Y-10752758D02*
X14011024Y-10743234D01*
X14011024Y-10743234D02*
X13991976Y-10733710D01*
X14106262Y-10667044D02*
X14115786Y-10657520D01*
X14115786Y-10657520D02*
X14134833Y-10647996D01*
X14134833Y-10647996D02*
X14182452Y-10647996D01*
X14182452Y-10647996D02*
X14201500Y-10657520D01*
X14201500Y-10657520D02*
X14211024Y-10667044D01*
X14211024Y-10667044D02*
X14220548Y-10686091D01*
X14220548Y-10686091D02*
X14220548Y-10705139D01*
X14220548Y-10705139D02*
X14211024Y-10733710D01*
X14211024Y-10733710D02*
X14096738Y-10847996D01*
X14096738Y-10847996D02*
X14220548Y-10847996D01*
X14287214Y-10647996D02*
X14420548Y-10647996D01*
X14420548Y-10647996D02*
X14334833Y-10847996D01*
X14487214Y-10647996D02*
X14487214Y-10686091D01*
X14563405Y-10647996D02*
X14563405Y-10686091D01*
X14826262Y-10924187D02*
X14816738Y-10914663D01*
X14816738Y-10914663D02*
X14797691Y-10886091D01*
X14797691Y-10886091D02*
X14788167Y-10867044D01*
X14788167Y-10867044D02*
X14778643Y-10838472D01*
X14778643Y-10838472D02*
X14769119Y-10790853D01*
X14769119Y-10790853D02*
X14769119Y-10752758D01*
X14769119Y-10752758D02*
X14778643Y-10705139D01*
X14778643Y-10705139D02*
X14788167Y-10676568D01*
X14788167Y-10676568D02*
X14797691Y-10657520D01*
X14797691Y-10657520D02*
X14816738Y-10628949D01*
X14816738Y-10628949D02*
X14826262Y-10619425D01*
X14988167Y-10714663D02*
X14988167Y-10847996D01*
X14940548Y-10638472D02*
X14892929Y-10781330D01*
X14892929Y-10781330D02*
X15016738Y-10781330D01*
X15212929Y-10847996D02*
X15212929Y-10647996D01*
X15298643Y-10847996D02*
X15298643Y-10743234D01*
X15298643Y-10743234D02*
X15289119Y-10724187D01*
X15289119Y-10724187D02*
X15270072Y-10714663D01*
X15270072Y-10714663D02*
X15241500Y-10714663D01*
X15241500Y-10714663D02*
X15222452Y-10724187D01*
X15222452Y-10724187D02*
X15212929Y-10733710D01*
X15422452Y-10847996D02*
X15403405Y-10838472D01*
X15403405Y-10838472D02*
X15393881Y-10828949D01*
X15393881Y-10828949D02*
X15384357Y-10809901D01*
X15384357Y-10809901D02*
X15384357Y-10752758D01*
X15384357Y-10752758D02*
X15393881Y-10733710D01*
X15393881Y-10733710D02*
X15403405Y-10724187D01*
X15403405Y-10724187D02*
X15422452Y-10714663D01*
X15422452Y-10714663D02*
X15451024Y-10714663D01*
X15451024Y-10714663D02*
X15470072Y-10724187D01*
X15470072Y-10724187D02*
X15479595Y-10733710D01*
X15479595Y-10733710D02*
X15489119Y-10752758D01*
X15489119Y-10752758D02*
X15489119Y-10809901D01*
X15489119Y-10809901D02*
X15479595Y-10828949D01*
X15479595Y-10828949D02*
X15470072Y-10838472D01*
X15470072Y-10838472D02*
X15451024Y-10847996D01*
X15451024Y-10847996D02*
X15422452Y-10847996D01*
X15603405Y-10847996D02*
X15584357Y-10838472D01*
X15584357Y-10838472D02*
X15574833Y-10819425D01*
X15574833Y-10819425D02*
X15574833Y-10647996D01*
X15755786Y-10838472D02*
X15736738Y-10847996D01*
X15736738Y-10847996D02*
X15698643Y-10847996D01*
X15698643Y-10847996D02*
X15679595Y-10838472D01*
X15679595Y-10838472D02*
X15670072Y-10819425D01*
X15670072Y-10819425D02*
X15670072Y-10743234D01*
X15670072Y-10743234D02*
X15679595Y-10724187D01*
X15679595Y-10724187D02*
X15698643Y-10714663D01*
X15698643Y-10714663D02*
X15736738Y-10714663D01*
X15736738Y-10714663D02*
X15755786Y-10724187D01*
X15755786Y-10724187D02*
X15765310Y-10743234D01*
X15765310Y-10743234D02*
X15765310Y-10762282D01*
X15765310Y-10762282D02*
X15670072Y-10781330D01*
X15841500Y-10838472D02*
X15860548Y-10847996D01*
X15860548Y-10847996D02*
X15898643Y-10847996D01*
X15898643Y-10847996D02*
X15917691Y-10838472D01*
X15917691Y-10838472D02*
X15927214Y-10819425D01*
X15927214Y-10819425D02*
X15927214Y-10809901D01*
X15927214Y-10809901D02*
X15917691Y-10790853D01*
X15917691Y-10790853D02*
X15898643Y-10781330D01*
X15898643Y-10781330D02*
X15870072Y-10781330D01*
X15870072Y-10781330D02*
X15851024Y-10771806D01*
X15851024Y-10771806D02*
X15841500Y-10752758D01*
X15841500Y-10752758D02*
X15841500Y-10743234D01*
X15841500Y-10743234D02*
X15851024Y-10724187D01*
X15851024Y-10724187D02*
X15870072Y-10714663D01*
X15870072Y-10714663D02*
X15898643Y-10714663D01*
X15898643Y-10714663D02*
X15917691Y-10724187D01*
X15993881Y-10924187D02*
X16003405Y-10914663D01*
X16003405Y-10914663D02*
X16022453Y-10886091D01*
X16022453Y-10886091D02*
X16031976Y-10867044D01*
X16031976Y-10867044D02*
X16041500Y-10838472D01*
X16041500Y-10838472D02*
X16051024Y-10790853D01*
X16051024Y-10790853D02*
X16051024Y-10752758D01*
X16051024Y-10752758D02*
X16041500Y-10705139D01*
X16041500Y-10705139D02*
X16031976Y-10676568D01*
X16031976Y-10676568D02*
X16022453Y-10657520D01*
X16022453Y-10657520D02*
X16003405Y-10628949D01*
X16003405Y-10628949D02*
X15993881Y-10619425D01*
X16323405Y-10924187D02*
X16313881Y-10914663D01*
X16313881Y-10914663D02*
X16294833Y-10886091D01*
X16294833Y-10886091D02*
X16285310Y-10867044D01*
X16285310Y-10867044D02*
X16275786Y-10838472D01*
X16275786Y-10838472D02*
X16266262Y-10790853D01*
X16266262Y-10790853D02*
X16266262Y-10752758D01*
X16266262Y-10752758D02*
X16275786Y-10705139D01*
X16275786Y-10705139D02*
X16285310Y-10676568D01*
X16285310Y-10676568D02*
X16294833Y-10657520D01*
X16294833Y-10657520D02*
X16313881Y-10628949D01*
X16313881Y-10628949D02*
X16323405Y-10619425D01*
X16399595Y-10714663D02*
X16399595Y-10847996D01*
X16399595Y-10733710D02*
X16409119Y-10724187D01*
X16409119Y-10724187D02*
X16428167Y-10714663D01*
X16428167Y-10714663D02*
X16456738Y-10714663D01*
X16456738Y-10714663D02*
X16475786Y-10724187D01*
X16475786Y-10724187D02*
X16485310Y-10743234D01*
X16485310Y-10743234D02*
X16485310Y-10847996D01*
X16609119Y-10847996D02*
X16590072Y-10838472D01*
X16590072Y-10838472D02*
X16580548Y-10828949D01*
X16580548Y-10828949D02*
X16571024Y-10809901D01*
X16571024Y-10809901D02*
X16571024Y-10752758D01*
X16571024Y-10752758D02*
X16580548Y-10733710D01*
X16580548Y-10733710D02*
X16590072Y-10724187D01*
X16590072Y-10724187D02*
X16609119Y-10714663D01*
X16609119Y-10714663D02*
X16637691Y-10714663D01*
X16637691Y-10714663D02*
X16656738Y-10724187D01*
X16656738Y-10724187D02*
X16666262Y-10733710D01*
X16666262Y-10733710D02*
X16675786Y-10752758D01*
X16675786Y-10752758D02*
X16675786Y-10809901D01*
X16675786Y-10809901D02*
X16666262Y-10828949D01*
X16666262Y-10828949D02*
X16656738Y-10838472D01*
X16656738Y-10838472D02*
X16637691Y-10847996D01*
X16637691Y-10847996D02*
X16609119Y-10847996D01*
X16732929Y-10714663D02*
X16809119Y-10714663D01*
X16761500Y-10647996D02*
X16761500Y-10819425D01*
X16761500Y-10819425D02*
X16771024Y-10838472D01*
X16771024Y-10838472D02*
X16790072Y-10847996D01*
X16790072Y-10847996D02*
X16809119Y-10847996D01*
X16995786Y-10714663D02*
X16995786Y-10914663D01*
X16995786Y-10724187D02*
X17014834Y-10714663D01*
X17014834Y-10714663D02*
X17052929Y-10714663D01*
X17052929Y-10714663D02*
X17071976Y-10724187D01*
X17071976Y-10724187D02*
X17081500Y-10733710D01*
X17081500Y-10733710D02*
X17091024Y-10752758D01*
X17091024Y-10752758D02*
X17091024Y-10809901D01*
X17091024Y-10809901D02*
X17081500Y-10828949D01*
X17081500Y-10828949D02*
X17071976Y-10838472D01*
X17071976Y-10838472D02*
X17052929Y-10847996D01*
X17052929Y-10847996D02*
X17014834Y-10847996D01*
X17014834Y-10847996D02*
X16995786Y-10838472D01*
X17205310Y-10847996D02*
X17186262Y-10838472D01*
X17186262Y-10838472D02*
X17176738Y-10819425D01*
X17176738Y-10819425D02*
X17176738Y-10647996D01*
X17367215Y-10847996D02*
X17367215Y-10743234D01*
X17367215Y-10743234D02*
X17357691Y-10724187D01*
X17357691Y-10724187D02*
X17338643Y-10714663D01*
X17338643Y-10714663D02*
X17300548Y-10714663D01*
X17300548Y-10714663D02*
X17281500Y-10724187D01*
X17367215Y-10838472D02*
X17348167Y-10847996D01*
X17348167Y-10847996D02*
X17300548Y-10847996D01*
X17300548Y-10847996D02*
X17281500Y-10838472D01*
X17281500Y-10838472D02*
X17271976Y-10819425D01*
X17271976Y-10819425D02*
X17271976Y-10800377D01*
X17271976Y-10800377D02*
X17281500Y-10781330D01*
X17281500Y-10781330D02*
X17300548Y-10771806D01*
X17300548Y-10771806D02*
X17348167Y-10771806D01*
X17348167Y-10771806D02*
X17367215Y-10762282D01*
X17433881Y-10714663D02*
X17510072Y-10714663D01*
X17462453Y-10647996D02*
X17462453Y-10819425D01*
X17462453Y-10819425D02*
X17471976Y-10838472D01*
X17471976Y-10838472D02*
X17491024Y-10847996D01*
X17491024Y-10847996D02*
X17510072Y-10847996D01*
X17652929Y-10838472D02*
X17633881Y-10847996D01*
X17633881Y-10847996D02*
X17595786Y-10847996D01*
X17595786Y-10847996D02*
X17576738Y-10838472D01*
X17576738Y-10838472D02*
X17567215Y-10819425D01*
X17567215Y-10819425D02*
X17567215Y-10743234D01*
X17567215Y-10743234D02*
X17576738Y-10724187D01*
X17576738Y-10724187D02*
X17595786Y-10714663D01*
X17595786Y-10714663D02*
X17633881Y-10714663D01*
X17633881Y-10714663D02*
X17652929Y-10724187D01*
X17652929Y-10724187D02*
X17662453Y-10743234D01*
X17662453Y-10743234D02*
X17662453Y-10762282D01*
X17662453Y-10762282D02*
X17567215Y-10781330D01*
X17833881Y-10847996D02*
X17833881Y-10647996D01*
X17833881Y-10838472D02*
X17814834Y-10847996D01*
X17814834Y-10847996D02*
X17776738Y-10847996D01*
X17776738Y-10847996D02*
X17757691Y-10838472D01*
X17757691Y-10838472D02*
X17748167Y-10828949D01*
X17748167Y-10828949D02*
X17738643Y-10809901D01*
X17738643Y-10809901D02*
X17738643Y-10752758D01*
X17738643Y-10752758D02*
X17748167Y-10733710D01*
X17748167Y-10733710D02*
X17757691Y-10724187D01*
X17757691Y-10724187D02*
X17776738Y-10714663D01*
X17776738Y-10714663D02*
X17814834Y-10714663D01*
X17814834Y-10714663D02*
X17833881Y-10724187D01*
X17910072Y-10924187D02*
X17919596Y-10914663D01*
X17919596Y-10914663D02*
X17938643Y-10886091D01*
X17938643Y-10886091D02*
X17948167Y-10867044D01*
X17948167Y-10867044D02*
X17957691Y-10838472D01*
X17957691Y-10838472D02*
X17967215Y-10790853D01*
X17967215Y-10790853D02*
X17967215Y-10752758D01*
X17967215Y-10752758D02*
X17957691Y-10705139D01*
X17957691Y-10705139D02*
X17948167Y-10676568D01*
X17948167Y-10676568D02*
X17938643Y-10657520D01*
X17938643Y-10657520D02*
X17919596Y-10628949D01*
X17919596Y-10628949D02*
X17910072Y-10619425D01*
M02*
