%TF.GenerationSoftware,KiCad,Pcbnew,(6.99.0-5210-g1b15854da5)*%
%TF.CreationDate,2023-02-20T10:03:57+05:30*%
%TF.ProjectId,Prot_Circ,50726f74-5f43-4697-9263-2e6b69636164,rev?*%
%TF.SameCoordinates,Original*%
%TF.FileFunction,Legend,Top*%
%TF.FilePolarity,Positive*%
%FSLAX46Y46*%
G04 Gerber Fmt 4.6, Leading zero omitted, Abs format (unit mm)*
G04 Created by KiCad (PCBNEW (6.99.0-5210-g1b15854da5)) date 2023-02-20 10:03:57*
%MOMM*%
%LPD*%
G01*
G04 APERTURE LIST*
%ADD10C,0.254000*%
%ADD11C,0.150000*%
%ADD12C,0.250000*%
%ADD13C,0.200000*%
%ADD14C,0.120000*%
G04 APERTURE END LIST*
D10*
%TO.C,C4*%
X139488333Y-74666021D02*
X139427857Y-74726497D01*
X139427857Y-74726497D02*
X139246428Y-74786973D01*
X139246428Y-74786973D02*
X139125476Y-74786973D01*
X139125476Y-74786973D02*
X138944047Y-74726497D01*
X138944047Y-74726497D02*
X138823095Y-74605545D01*
X138823095Y-74605545D02*
X138762618Y-74484592D01*
X138762618Y-74484592D02*
X138702142Y-74242688D01*
X138702142Y-74242688D02*
X138702142Y-74061259D01*
X138702142Y-74061259D02*
X138762618Y-73819354D01*
X138762618Y-73819354D02*
X138823095Y-73698402D01*
X138823095Y-73698402D02*
X138944047Y-73577450D01*
X138944047Y-73577450D02*
X139125476Y-73516973D01*
X139125476Y-73516973D02*
X139246428Y-73516973D01*
X139246428Y-73516973D02*
X139427857Y-73577450D01*
X139427857Y-73577450D02*
X139488333Y-73637926D01*
X140576904Y-73940307D02*
X140576904Y-74786973D01*
X140274523Y-73456497D02*
X139972142Y-74363640D01*
X139972142Y-74363640D02*
X140758333Y-74363640D01*
%TO.C,C2*%
X137989733Y-91099821D02*
X137929257Y-91160297D01*
X137929257Y-91160297D02*
X137747828Y-91220773D01*
X137747828Y-91220773D02*
X137626876Y-91220773D01*
X137626876Y-91220773D02*
X137445447Y-91160297D01*
X137445447Y-91160297D02*
X137324495Y-91039345D01*
X137324495Y-91039345D02*
X137264018Y-90918392D01*
X137264018Y-90918392D02*
X137203542Y-90676488D01*
X137203542Y-90676488D02*
X137203542Y-90495059D01*
X137203542Y-90495059D02*
X137264018Y-90253154D01*
X137264018Y-90253154D02*
X137324495Y-90132202D01*
X137324495Y-90132202D02*
X137445447Y-90011250D01*
X137445447Y-90011250D02*
X137626876Y-89950773D01*
X137626876Y-89950773D02*
X137747828Y-89950773D01*
X137747828Y-89950773D02*
X137929257Y-90011250D01*
X137929257Y-90011250D02*
X137989733Y-90071726D01*
X138473542Y-90071726D02*
X138534018Y-90011250D01*
X138534018Y-90011250D02*
X138654971Y-89950773D01*
X138654971Y-89950773D02*
X138957352Y-89950773D01*
X138957352Y-89950773D02*
X139078304Y-90011250D01*
X139078304Y-90011250D02*
X139138780Y-90071726D01*
X139138780Y-90071726D02*
X139199257Y-90192678D01*
X139199257Y-90192678D02*
X139199257Y-90313630D01*
X139199257Y-90313630D02*
X139138780Y-90495059D01*
X139138780Y-90495059D02*
X138413066Y-91220773D01*
X138413066Y-91220773D02*
X139199257Y-91220773D01*
D11*
%TO.C,R1*%
X141298633Y-89267380D02*
X140965300Y-88791190D01*
X140727205Y-89267380D02*
X140727205Y-88267380D01*
X140727205Y-88267380D02*
X141108157Y-88267380D01*
X141108157Y-88267380D02*
X141203395Y-88315000D01*
X141203395Y-88315000D02*
X141251014Y-88362619D01*
X141251014Y-88362619D02*
X141298633Y-88457857D01*
X141298633Y-88457857D02*
X141298633Y-88600714D01*
X141298633Y-88600714D02*
X141251014Y-88695952D01*
X141251014Y-88695952D02*
X141203395Y-88743571D01*
X141203395Y-88743571D02*
X141108157Y-88791190D01*
X141108157Y-88791190D02*
X140727205Y-88791190D01*
X142251014Y-89267380D02*
X141679586Y-89267380D01*
X141965300Y-89267380D02*
X141965300Y-88267380D01*
X141965300Y-88267380D02*
X141870062Y-88410238D01*
X141870062Y-88410238D02*
X141774824Y-88505476D01*
X141774824Y-88505476D02*
X141679586Y-88553095D01*
X141465300Y-85727380D02*
X141465300Y-85965476D01*
X141227205Y-85870238D02*
X141465300Y-85965476D01*
X141465300Y-85965476D02*
X141703395Y-85870238D01*
X141322443Y-86155952D02*
X141465300Y-85965476D01*
X141465300Y-85965476D02*
X141608157Y-86155952D01*
%TO.C,R4*%
X131786333Y-88378380D02*
X131453000Y-87902190D01*
X131214905Y-88378380D02*
X131214905Y-87378380D01*
X131214905Y-87378380D02*
X131595857Y-87378380D01*
X131595857Y-87378380D02*
X131691095Y-87426000D01*
X131691095Y-87426000D02*
X131738714Y-87473619D01*
X131738714Y-87473619D02*
X131786333Y-87568857D01*
X131786333Y-87568857D02*
X131786333Y-87711714D01*
X131786333Y-87711714D02*
X131738714Y-87806952D01*
X131738714Y-87806952D02*
X131691095Y-87854571D01*
X131691095Y-87854571D02*
X131595857Y-87902190D01*
X131595857Y-87902190D02*
X131214905Y-87902190D01*
X132643476Y-87711714D02*
X132643476Y-88378380D01*
X132405381Y-87330761D02*
X132167286Y-88045047D01*
X132167286Y-88045047D02*
X132786333Y-88045047D01*
X132080000Y-85727380D02*
X132080000Y-85965476D01*
X131841905Y-85870238D02*
X132080000Y-85965476D01*
X132080000Y-85965476D02*
X132318095Y-85870238D01*
X131937143Y-86155952D02*
X132080000Y-85965476D01*
X132080000Y-85965476D02*
X132222857Y-86155952D01*
%TO.C,R3*%
X148626533Y-84619180D02*
X148293200Y-84142990D01*
X148055105Y-84619180D02*
X148055105Y-83619180D01*
X148055105Y-83619180D02*
X148436057Y-83619180D01*
X148436057Y-83619180D02*
X148531295Y-83666800D01*
X148531295Y-83666800D02*
X148578914Y-83714419D01*
X148578914Y-83714419D02*
X148626533Y-83809657D01*
X148626533Y-83809657D02*
X148626533Y-83952514D01*
X148626533Y-83952514D02*
X148578914Y-84047752D01*
X148578914Y-84047752D02*
X148531295Y-84095371D01*
X148531295Y-84095371D02*
X148436057Y-84142990D01*
X148436057Y-84142990D02*
X148055105Y-84142990D01*
X148959867Y-83619180D02*
X149578914Y-83619180D01*
X149578914Y-83619180D02*
X149245581Y-84000133D01*
X149245581Y-84000133D02*
X149388438Y-84000133D01*
X149388438Y-84000133D02*
X149483676Y-84047752D01*
X149483676Y-84047752D02*
X149531295Y-84095371D01*
X149531295Y-84095371D02*
X149578914Y-84190609D01*
X149578914Y-84190609D02*
X149578914Y-84428704D01*
X149578914Y-84428704D02*
X149531295Y-84523942D01*
X149531295Y-84523942D02*
X149483676Y-84571561D01*
X149483676Y-84571561D02*
X149388438Y-84619180D01*
X149388438Y-84619180D02*
X149102724Y-84619180D01*
X149102724Y-84619180D02*
X149007486Y-84571561D01*
X149007486Y-84571561D02*
X148959867Y-84523942D01*
X145554700Y-83187380D02*
X145554700Y-83425476D01*
X145316605Y-83330238D02*
X145554700Y-83425476D01*
X145554700Y-83425476D02*
X145792795Y-83330238D01*
X145411843Y-83615952D02*
X145554700Y-83425476D01*
X145554700Y-83425476D02*
X145697557Y-83615952D01*
%TO.C,SW1*%
X148526667Y-89219761D02*
X148669524Y-89267380D01*
X148669524Y-89267380D02*
X148907619Y-89267380D01*
X148907619Y-89267380D02*
X149002857Y-89219761D01*
X149002857Y-89219761D02*
X149050476Y-89172142D01*
X149050476Y-89172142D02*
X149098095Y-89076904D01*
X149098095Y-89076904D02*
X149098095Y-88981666D01*
X149098095Y-88981666D02*
X149050476Y-88886428D01*
X149050476Y-88886428D02*
X149002857Y-88838809D01*
X149002857Y-88838809D02*
X148907619Y-88791190D01*
X148907619Y-88791190D02*
X148717143Y-88743571D01*
X148717143Y-88743571D02*
X148621905Y-88695952D01*
X148621905Y-88695952D02*
X148574286Y-88648333D01*
X148574286Y-88648333D02*
X148526667Y-88553095D01*
X148526667Y-88553095D02*
X148526667Y-88457857D01*
X148526667Y-88457857D02*
X148574286Y-88362619D01*
X148574286Y-88362619D02*
X148621905Y-88315000D01*
X148621905Y-88315000D02*
X148717143Y-88267380D01*
X148717143Y-88267380D02*
X148955238Y-88267380D01*
X148955238Y-88267380D02*
X149098095Y-88315000D01*
X149431429Y-88267380D02*
X149669524Y-89267380D01*
X149669524Y-89267380D02*
X149860000Y-88553095D01*
X149860000Y-88553095D02*
X150050476Y-89267380D01*
X150050476Y-89267380D02*
X150288572Y-88267380D01*
X151193333Y-89267380D02*
X150621905Y-89267380D01*
X150907619Y-89267380D02*
X150907619Y-88267380D01*
X150907619Y-88267380D02*
X150812381Y-88410238D01*
X150812381Y-88410238D02*
X150717143Y-88505476D01*
X150717143Y-88505476D02*
X150621905Y-88553095D01*
D12*
%TO.C,C1*%
X140422333Y-83177742D02*
X140374714Y-83225361D01*
X140374714Y-83225361D02*
X140231857Y-83272980D01*
X140231857Y-83272980D02*
X140136619Y-83272980D01*
X140136619Y-83272980D02*
X139993762Y-83225361D01*
X139993762Y-83225361D02*
X139898524Y-83130123D01*
X139898524Y-83130123D02*
X139850905Y-83034885D01*
X139850905Y-83034885D02*
X139803286Y-82844409D01*
X139803286Y-82844409D02*
X139803286Y-82701552D01*
X139803286Y-82701552D02*
X139850905Y-82511076D01*
X139850905Y-82511076D02*
X139898524Y-82415838D01*
X139898524Y-82415838D02*
X139993762Y-82320600D01*
X139993762Y-82320600D02*
X140136619Y-82272980D01*
X140136619Y-82272980D02*
X140231857Y-82272980D01*
X140231857Y-82272980D02*
X140374714Y-82320600D01*
X140374714Y-82320600D02*
X140422333Y-82368219D01*
X141374714Y-83272980D02*
X140803286Y-83272980D01*
X141089000Y-83272980D02*
X141089000Y-82272980D01*
X141089000Y-82272980D02*
X140993762Y-82415838D01*
X140993762Y-82415838D02*
X140898524Y-82511076D01*
X140898524Y-82511076D02*
X140803286Y-82558695D01*
D11*
%TO.C,J1*%
X114297380Y-91073333D02*
X115011666Y-91073333D01*
X115011666Y-91073333D02*
X115154523Y-91120952D01*
X115154523Y-91120952D02*
X115249761Y-91216190D01*
X115249761Y-91216190D02*
X115297380Y-91359047D01*
X115297380Y-91359047D02*
X115297380Y-91454285D01*
X115297380Y-90073333D02*
X115297380Y-90644761D01*
X115297380Y-90359047D02*
X114297380Y-90359047D01*
X114297380Y-90359047D02*
X114440238Y-90454285D01*
X114440238Y-90454285D02*
X114535476Y-90549523D01*
X114535476Y-90549523D02*
X114583095Y-90644761D01*
%TO.C,J2*%
X166377380Y-82233333D02*
X167091666Y-82233333D01*
X167091666Y-82233333D02*
X167234523Y-82280952D01*
X167234523Y-82280952D02*
X167329761Y-82376190D01*
X167329761Y-82376190D02*
X167377380Y-82519047D01*
X167377380Y-82519047D02*
X167377380Y-82614285D01*
X166472619Y-81804761D02*
X166425000Y-81757142D01*
X166425000Y-81757142D02*
X166377380Y-81661904D01*
X166377380Y-81661904D02*
X166377380Y-81423809D01*
X166377380Y-81423809D02*
X166425000Y-81328571D01*
X166425000Y-81328571D02*
X166472619Y-81280952D01*
X166472619Y-81280952D02*
X166567857Y-81233333D01*
X166567857Y-81233333D02*
X166663095Y-81233333D01*
X166663095Y-81233333D02*
X166805952Y-81280952D01*
X166805952Y-81280952D02*
X167377380Y-81852380D01*
X167377380Y-81852380D02*
X167377380Y-81233333D01*
%TO.C,R2*%
X133970733Y-93712380D02*
X133637400Y-93236190D01*
X133399305Y-93712380D02*
X133399305Y-92712380D01*
X133399305Y-92712380D02*
X133780257Y-92712380D01*
X133780257Y-92712380D02*
X133875495Y-92760000D01*
X133875495Y-92760000D02*
X133923114Y-92807619D01*
X133923114Y-92807619D02*
X133970733Y-92902857D01*
X133970733Y-92902857D02*
X133970733Y-93045714D01*
X133970733Y-93045714D02*
X133923114Y-93140952D01*
X133923114Y-93140952D02*
X133875495Y-93188571D01*
X133875495Y-93188571D02*
X133780257Y-93236190D01*
X133780257Y-93236190D02*
X133399305Y-93236190D01*
X134351686Y-92807619D02*
X134399305Y-92760000D01*
X134399305Y-92760000D02*
X134494543Y-92712380D01*
X134494543Y-92712380D02*
X134732638Y-92712380D01*
X134732638Y-92712380D02*
X134827876Y-92760000D01*
X134827876Y-92760000D02*
X134875495Y-92807619D01*
X134875495Y-92807619D02*
X134923114Y-92902857D01*
X134923114Y-92902857D02*
X134923114Y-92998095D01*
X134923114Y-92998095D02*
X134875495Y-93140952D01*
X134875495Y-93140952D02*
X134304067Y-93712380D01*
X134304067Y-93712380D02*
X134923114Y-93712380D01*
X133845300Y-90273980D02*
X133845300Y-90512076D01*
X133607205Y-90416838D02*
X133845300Y-90512076D01*
X133845300Y-90512076D02*
X134083395Y-90416838D01*
X133702443Y-90702552D02*
X133845300Y-90512076D01*
X133845300Y-90512076D02*
X133988157Y-90702552D01*
D10*
%TO.C,C3*%
X130928533Y-79695221D02*
X130868057Y-79755697D01*
X130868057Y-79755697D02*
X130686628Y-79816173D01*
X130686628Y-79816173D02*
X130565676Y-79816173D01*
X130565676Y-79816173D02*
X130384247Y-79755697D01*
X130384247Y-79755697D02*
X130263295Y-79634745D01*
X130263295Y-79634745D02*
X130202818Y-79513792D01*
X130202818Y-79513792D02*
X130142342Y-79271888D01*
X130142342Y-79271888D02*
X130142342Y-79090459D01*
X130142342Y-79090459D02*
X130202818Y-78848554D01*
X130202818Y-78848554D02*
X130263295Y-78727602D01*
X130263295Y-78727602D02*
X130384247Y-78606650D01*
X130384247Y-78606650D02*
X130565676Y-78546173D01*
X130565676Y-78546173D02*
X130686628Y-78546173D01*
X130686628Y-78546173D02*
X130868057Y-78606650D01*
X130868057Y-78606650D02*
X130928533Y-78667126D01*
X131351866Y-78546173D02*
X132138057Y-78546173D01*
X132138057Y-78546173D02*
X131714723Y-79029983D01*
X131714723Y-79029983D02*
X131896152Y-79029983D01*
X131896152Y-79029983D02*
X132017104Y-79090459D01*
X132017104Y-79090459D02*
X132077580Y-79150935D01*
X132077580Y-79150935D02*
X132138057Y-79271888D01*
X132138057Y-79271888D02*
X132138057Y-79574269D01*
X132138057Y-79574269D02*
X132077580Y-79695221D01*
X132077580Y-79695221D02*
X132017104Y-79755697D01*
X132017104Y-79755697D02*
X131896152Y-79816173D01*
X131896152Y-79816173D02*
X131533295Y-79816173D01*
X131533295Y-79816173D02*
X131412342Y-79755697D01*
X131412342Y-79755697D02*
X131351866Y-79695221D01*
D11*
%TO.C,R5*%
X156348133Y-96252380D02*
X156014800Y-95776190D01*
X155776705Y-96252380D02*
X155776705Y-95252380D01*
X155776705Y-95252380D02*
X156157657Y-95252380D01*
X156157657Y-95252380D02*
X156252895Y-95300000D01*
X156252895Y-95300000D02*
X156300514Y-95347619D01*
X156300514Y-95347619D02*
X156348133Y-95442857D01*
X156348133Y-95442857D02*
X156348133Y-95585714D01*
X156348133Y-95585714D02*
X156300514Y-95680952D01*
X156300514Y-95680952D02*
X156252895Y-95728571D01*
X156252895Y-95728571D02*
X156157657Y-95776190D01*
X156157657Y-95776190D02*
X155776705Y-95776190D01*
X157252895Y-95252380D02*
X156776705Y-95252380D01*
X156776705Y-95252380D02*
X156729086Y-95728571D01*
X156729086Y-95728571D02*
X156776705Y-95680952D01*
X156776705Y-95680952D02*
X156871943Y-95633333D01*
X156871943Y-95633333D02*
X157110038Y-95633333D01*
X157110038Y-95633333D02*
X157205276Y-95680952D01*
X157205276Y-95680952D02*
X157252895Y-95728571D01*
X157252895Y-95728571D02*
X157300514Y-95823809D01*
X157300514Y-95823809D02*
X157300514Y-96061904D01*
X157300514Y-96061904D02*
X157252895Y-96157142D01*
X157252895Y-96157142D02*
X157205276Y-96204761D01*
X157205276Y-96204761D02*
X157110038Y-96252380D01*
X157110038Y-96252380D02*
X156871943Y-96252380D01*
X156871943Y-96252380D02*
X156776705Y-96204761D01*
X156776705Y-96204761D02*
X156729086Y-96157142D01*
X156705300Y-93347380D02*
X156705300Y-93585476D01*
X156467205Y-93490238D02*
X156705300Y-93585476D01*
X156705300Y-93585476D02*
X156943395Y-93490238D01*
X156562443Y-93775952D02*
X156705300Y-93585476D01*
X156705300Y-93585476D02*
X156848157Y-93775952D01*
D10*
%TO.C,F1*%
X133714067Y-82198935D02*
X133290733Y-82198935D01*
X133290733Y-82864173D02*
X133290733Y-81594173D01*
X133290733Y-81594173D02*
X133895495Y-81594173D01*
X135044543Y-82864173D02*
X134318828Y-82864173D01*
X134681685Y-82864173D02*
X134681685Y-81594173D01*
X134681685Y-81594173D02*
X134560733Y-81775602D01*
X134560733Y-81775602D02*
X134439781Y-81896554D01*
X134439781Y-81896554D02*
X134318828Y-81957030D01*
D13*
%TO.C,C4*%
X135750000Y-78740000D02*
G75*
G03*
X135750000Y-78740000I-50000J0D01*
G01*
D14*
%TO.C,R1*%
X141379150Y-86893400D02*
X141551450Y-86893400D01*
X141551450Y-85826600D02*
X141379150Y-85826600D01*
%TO.C,R4*%
X131993850Y-86893400D02*
X132166150Y-86893400D01*
X132166150Y-85826600D02*
X131993850Y-85826600D01*
%TO.C,R3*%
X145468550Y-84353400D02*
X145640850Y-84353400D01*
X145640850Y-83286600D02*
X145468550Y-83286600D01*
%TO.C,SW1*%
X143670000Y-89090000D02*
X143670000Y-90473000D01*
X143670000Y-89090000D02*
X145053000Y-89090000D01*
X143910000Y-89330000D02*
X143910000Y-90640000D01*
X143910000Y-89330000D02*
X150730000Y-89330000D01*
X143910000Y-92240000D02*
X143910000Y-93550000D01*
X143910000Y-93550000D02*
X150730000Y-93550000D01*
X145510000Y-90805000D02*
X145510000Y-92075000D01*
X145510000Y-90925000D02*
X146716667Y-90925000D01*
X145510000Y-91045000D02*
X146716667Y-91045000D01*
X145510000Y-91165000D02*
X146716667Y-91165000D01*
X145510000Y-91285000D02*
X146716667Y-91285000D01*
X145510000Y-91405000D02*
X146716667Y-91405000D01*
X145510000Y-91525000D02*
X146716667Y-91525000D01*
X145510000Y-91645000D02*
X146716667Y-91645000D01*
X145510000Y-91765000D02*
X146716667Y-91765000D01*
X145510000Y-91885000D02*
X146716667Y-91885000D01*
X145510000Y-92005000D02*
X146716667Y-92005000D01*
X145510000Y-92075000D02*
X149130000Y-92075000D01*
X146716667Y-90805000D02*
X146716667Y-92075000D01*
X149130000Y-90805000D02*
X145510000Y-90805000D01*
X149130000Y-92075000D02*
X149130000Y-90805000D01*
X150730000Y-89330000D02*
X150730000Y-90640000D01*
X150730000Y-92240000D02*
X150730000Y-93550000D01*
D13*
%TO.C,C1*%
X140640000Y-83820000D02*
G75*
G03*
X140640000Y-83820000I-50000J0D01*
G01*
D14*
%TO.C,J1*%
X115620000Y-91470000D02*
X128220000Y-91470000D01*
X128220000Y-91470000D02*
X128220000Y-81120000D01*
X120420000Y-81120000D02*
X120720000Y-80620000D01*
X125820000Y-81120000D02*
X120420000Y-81120000D01*
X127270000Y-81120000D02*
X127520000Y-80620000D01*
X128220000Y-81120000D02*
X127270000Y-81120000D01*
X115620000Y-80620000D02*
X115620000Y-91470000D01*
X120720000Y-80620000D02*
X115620000Y-80620000D01*
X125570000Y-80620000D02*
X125820000Y-81120000D01*
X125620000Y-80620000D02*
X125570000Y-80620000D01*
X127520000Y-80620000D02*
X125620000Y-80620000D01*
%TO.C,J2*%
X166320000Y-81170000D02*
X153720000Y-81170000D01*
X153720000Y-81170000D02*
X153720000Y-91520000D01*
X161520000Y-91520000D02*
X161220000Y-92020000D01*
X156120000Y-91520000D02*
X161520000Y-91520000D01*
X154670000Y-91520000D02*
X154420000Y-92020000D01*
X153720000Y-91520000D02*
X154670000Y-91520000D01*
X166320000Y-92020000D02*
X166320000Y-81170000D01*
X161220000Y-92020000D02*
X166320000Y-92020000D01*
X156370000Y-92020000D02*
X156120000Y-91520000D01*
X156320000Y-92020000D02*
X156370000Y-92020000D01*
X154420000Y-92020000D02*
X156320000Y-92020000D01*
%TO.C,R2*%
X133759150Y-91973400D02*
X133931450Y-91973400D01*
X133931450Y-90906600D02*
X133759150Y-90906600D01*
%TO.C,R5*%
X156619150Y-94513400D02*
X156791450Y-94513400D01*
X156791450Y-93446600D02*
X156619150Y-93446600D01*
D12*
%TO.C,F1*%
X134445000Y-83145000D02*
G75*
G03*
X134445000Y-83145000I-125000J0D01*
G01*
%TD*%
M02*
