%TF.GenerationSoftware,KiCad,Pcbnew,(6.99.0-5210-g1b15854da5)*%
%TF.CreationDate,2023-02-20T10:03:57+05:30*%
%TF.ProjectId,Prot_Circ,50726f74-5f43-4697-9263-2e6b69636164,rev?*%
%TF.SameCoordinates,Original*%
%TF.FileFunction,Copper,L2,Bot*%
%TF.FilePolarity,Positive*%
%FSLAX46Y46*%
G04 Gerber Fmt 4.6, Leading zero omitted, Abs format (unit mm)*
G04 Created by KiCad (PCBNEW (6.99.0-5210-g1b15854da5)) date 2023-02-20 10:03:57*
%MOMM*%
%LPD*%
G01*
G04 APERTURE LIST*
%TA.AperFunction,ComponentPad*%
%ADD10R,3.960000X1.980000*%
%TD*%
%TA.AperFunction,ComponentPad*%
%ADD11O,3.960000X1.980000*%
%TD*%
%TA.AperFunction,ViaPad*%
%ADD12C,0.600000*%
%TD*%
%TA.AperFunction,ViaPad*%
%ADD13C,0.800000*%
%TD*%
%TA.AperFunction,Conductor*%
%ADD14C,0.250000*%
%TD*%
G04 APERTURE END LIST*
D10*
%TO.P,J1,1,Pin_1*%
%TO.N,Earth*%
X121919999Y-88819999D03*
D11*
%TO.P,J1,2,Pin_2*%
%TO.N,Net-(F1-OUT)*%
X121919999Y-83819999D03*
%TD*%
D10*
%TO.P,J2,1,Pin_1*%
%TO.N,Net-(F1-IN)*%
X160019999Y-83819999D03*
D11*
%TO.P,J2,2,Pin_2*%
%TO.N,Earth*%
X160019999Y-88819999D03*
%TD*%
D12*
%TO.N,Earth*%
X135661400Y-84912200D03*
X135661400Y-83997800D03*
D13*
%TO.N,Net-(F1-OVLO)*%
X147320000Y-96520000D03*
X147320000Y-86360000D03*
%TD*%
D14*
%TO.N,Net-(F1-OVLO)*%
X147320000Y-88900000D02*
X147320000Y-86360000D01*
X147320000Y-91440000D02*
X147320000Y-88900000D01*
X147320000Y-96520000D02*
X147320000Y-91440000D01*
%TD*%
%TA.AperFunction,Conductor*%
%TO.N,Earth*%
G36*
X167500300Y-72940781D02*
G01*
X167546419Y-72986900D01*
X167563300Y-73049900D01*
X167563300Y-101168700D01*
X167546419Y-101231700D01*
X167500300Y-101277819D01*
X167437300Y-101294700D01*
X113791500Y-101294700D01*
X113728500Y-101277819D01*
X113682381Y-101231700D01*
X113665500Y-101168700D01*
X113665500Y-96520000D01*
X120614532Y-96520000D01*
X120615011Y-96525475D01*
X120631697Y-96716205D01*
X120634365Y-96746692D01*
X120693261Y-96966496D01*
X120789432Y-97172734D01*
X120792584Y-97177235D01*
X120792586Y-97177239D01*
X120916793Y-97354627D01*
X120916797Y-97354631D01*
X120919953Y-97359139D01*
X121080861Y-97520047D01*
X121085369Y-97523203D01*
X121085372Y-97523206D01*
X121262760Y-97647413D01*
X121267266Y-97650568D01*
X121473504Y-97746739D01*
X121693308Y-97805635D01*
X121863216Y-97820500D01*
X121974044Y-97820500D01*
X121976784Y-97820500D01*
X122146692Y-97805635D01*
X122366496Y-97746739D01*
X122572734Y-97650568D01*
X122759139Y-97520047D01*
X122920047Y-97359139D01*
X123050568Y-97172734D01*
X123146739Y-96966496D01*
X123205635Y-96746692D01*
X123225468Y-96520000D01*
X146406496Y-96520000D01*
X146426458Y-96709928D01*
X146428495Y-96716200D01*
X146428497Y-96716205D01*
X146483430Y-96885271D01*
X146483433Y-96885278D01*
X146485473Y-96891556D01*
X146580960Y-97056944D01*
X146708747Y-97198866D01*
X146863248Y-97311118D01*
X147037712Y-97388794D01*
X147224513Y-97428500D01*
X147408884Y-97428500D01*
X147415487Y-97428500D01*
X147602288Y-97388794D01*
X147776752Y-97311118D01*
X147931253Y-97198866D01*
X148059040Y-97056944D01*
X148154527Y-96891556D01*
X148213542Y-96709928D01*
X148233504Y-96520000D01*
X158714532Y-96520000D01*
X158715011Y-96525475D01*
X158731697Y-96716205D01*
X158734365Y-96746692D01*
X158793261Y-96966496D01*
X158889432Y-97172734D01*
X158892584Y-97177235D01*
X158892586Y-97177239D01*
X159016793Y-97354627D01*
X159016797Y-97354631D01*
X159019953Y-97359139D01*
X159180861Y-97520047D01*
X159185369Y-97523203D01*
X159185372Y-97523206D01*
X159362760Y-97647413D01*
X159367266Y-97650568D01*
X159573504Y-97746739D01*
X159793308Y-97805635D01*
X159963216Y-97820500D01*
X160074044Y-97820500D01*
X160076784Y-97820500D01*
X160246692Y-97805635D01*
X160466496Y-97746739D01*
X160672734Y-97650568D01*
X160859139Y-97520047D01*
X161020047Y-97359139D01*
X161150568Y-97172734D01*
X161246739Y-96966496D01*
X161305635Y-96746692D01*
X161325468Y-96520000D01*
X161305635Y-96293308D01*
X161246739Y-96073504D01*
X161150568Y-95867266D01*
X161020047Y-95680861D01*
X160859139Y-95519953D01*
X160854631Y-95516797D01*
X160854627Y-95516793D01*
X160677239Y-95392586D01*
X160677235Y-95392584D01*
X160672734Y-95389432D01*
X160466496Y-95293261D01*
X160461188Y-95291838D01*
X160461186Y-95291838D01*
X160252006Y-95235789D01*
X160252007Y-95235789D01*
X160246692Y-95234365D01*
X160241216Y-95233885D01*
X160241211Y-95233885D01*
X160079507Y-95219738D01*
X160079501Y-95219737D01*
X160076784Y-95219500D01*
X159963216Y-95219500D01*
X159960499Y-95219737D01*
X159960492Y-95219738D01*
X159798788Y-95233885D01*
X159798781Y-95233886D01*
X159793308Y-95234365D01*
X159787994Y-95235788D01*
X159787993Y-95235789D01*
X159578813Y-95291838D01*
X159578808Y-95291839D01*
X159573504Y-95293261D01*
X159568527Y-95295581D01*
X159568521Y-95295584D01*
X159372247Y-95387109D01*
X159372244Y-95387110D01*
X159367266Y-95389432D01*
X159362769Y-95392580D01*
X159362760Y-95392586D01*
X159185372Y-95516793D01*
X159185361Y-95516801D01*
X159180861Y-95519953D01*
X159176971Y-95523842D01*
X159176965Y-95523848D01*
X159023848Y-95676965D01*
X159023842Y-95676971D01*
X159019953Y-95680861D01*
X159016801Y-95685361D01*
X159016793Y-95685372D01*
X158892586Y-95862760D01*
X158892580Y-95862769D01*
X158889432Y-95867266D01*
X158887110Y-95872244D01*
X158887109Y-95872247D01*
X158795584Y-96068521D01*
X158795581Y-96068527D01*
X158793261Y-96073504D01*
X158734365Y-96293308D01*
X158733886Y-96298781D01*
X158733885Y-96298788D01*
X158730574Y-96336635D01*
X158714532Y-96520000D01*
X148233504Y-96520000D01*
X148213542Y-96330072D01*
X148154527Y-96148444D01*
X148059040Y-95983056D01*
X147985861Y-95901783D01*
X147961869Y-95862630D01*
X147953500Y-95817476D01*
X147953500Y-89087541D01*
X157555931Y-89087541D01*
X157572003Y-89183855D01*
X157574553Y-89193925D01*
X157651776Y-89418870D01*
X157655950Y-89428384D01*
X157769152Y-89637562D01*
X157774823Y-89646243D01*
X157920903Y-89833927D01*
X157927947Y-89841579D01*
X158102915Y-90002648D01*
X158111121Y-90009036D01*
X158310225Y-90139117D01*
X158319360Y-90144060D01*
X158537160Y-90239596D01*
X158546985Y-90242969D01*
X158777533Y-90301351D01*
X158787787Y-90303063D01*
X158965441Y-90317784D01*
X158970656Y-90318000D01*
X159749410Y-90318000D01*
X159762493Y-90314493D01*
X159766000Y-90301410D01*
X160274000Y-90301410D01*
X160277506Y-90314493D01*
X160290590Y-90318000D01*
X161069344Y-90318000D01*
X161074558Y-90317784D01*
X161252212Y-90303063D01*
X161262466Y-90301351D01*
X161493014Y-90242969D01*
X161502839Y-90239596D01*
X161720639Y-90144060D01*
X161729774Y-90139117D01*
X161928878Y-90009036D01*
X161937084Y-90002648D01*
X162112052Y-89841579D01*
X162119096Y-89833927D01*
X162265176Y-89646243D01*
X162270847Y-89637562D01*
X162384049Y-89428384D01*
X162388223Y-89418870D01*
X162465446Y-89193925D01*
X162467996Y-89183855D01*
X162484068Y-89087541D01*
X162483492Y-89076401D01*
X162472601Y-89074000D01*
X160290590Y-89074000D01*
X160277506Y-89077506D01*
X160274000Y-89090590D01*
X160274000Y-90301410D01*
X159766000Y-90301410D01*
X159766000Y-89090590D01*
X159762493Y-89077506D01*
X159749410Y-89074000D01*
X157567399Y-89074000D01*
X157556507Y-89076401D01*
X157555931Y-89087541D01*
X147953500Y-89087541D01*
X147953500Y-88552458D01*
X157555931Y-88552458D01*
X157556507Y-88563598D01*
X157567399Y-88566000D01*
X159749410Y-88566000D01*
X159762493Y-88562493D01*
X159766000Y-88549410D01*
X160274000Y-88549410D01*
X160277506Y-88562493D01*
X160290590Y-88566000D01*
X162472601Y-88566000D01*
X162483492Y-88563598D01*
X162484068Y-88552458D01*
X162467996Y-88456144D01*
X162465446Y-88446074D01*
X162388223Y-88221129D01*
X162384049Y-88211615D01*
X162270847Y-88002437D01*
X162265176Y-87993756D01*
X162119096Y-87806072D01*
X162112052Y-87798420D01*
X161937084Y-87637351D01*
X161928878Y-87630963D01*
X161729774Y-87500882D01*
X161720639Y-87495939D01*
X161502839Y-87400403D01*
X161493014Y-87397030D01*
X161262466Y-87338648D01*
X161252212Y-87336936D01*
X161074558Y-87322215D01*
X161069344Y-87322000D01*
X160290590Y-87322000D01*
X160277506Y-87325506D01*
X160274000Y-87338590D01*
X160274000Y-88549410D01*
X159766000Y-88549410D01*
X159766000Y-87338590D01*
X159762493Y-87325506D01*
X159749410Y-87322000D01*
X158970656Y-87322000D01*
X158965441Y-87322215D01*
X158787787Y-87336936D01*
X158777533Y-87338648D01*
X158546985Y-87397030D01*
X158537160Y-87400403D01*
X158319360Y-87495939D01*
X158310225Y-87500882D01*
X158111121Y-87630963D01*
X158102915Y-87637351D01*
X157927947Y-87798420D01*
X157920903Y-87806072D01*
X157774823Y-87993756D01*
X157769152Y-88002437D01*
X157655950Y-88211615D01*
X157651776Y-88221129D01*
X157574553Y-88446074D01*
X157572003Y-88456144D01*
X157555931Y-88552458D01*
X147953500Y-88552458D01*
X147953500Y-87062524D01*
X147961869Y-87017370D01*
X147985861Y-86978216D01*
X148059040Y-86896944D01*
X148154527Y-86731556D01*
X148213542Y-86549928D01*
X148233504Y-86360000D01*
X148213542Y-86170072D01*
X148154527Y-85988444D01*
X148059040Y-85823056D01*
X147931253Y-85681134D01*
X147925911Y-85677253D01*
X147925908Y-85677250D01*
X147848057Y-85620688D01*
X147776752Y-85568882D01*
X147602288Y-85491206D01*
X147595835Y-85489834D01*
X147595831Y-85489833D01*
X147421943Y-85452872D01*
X147421940Y-85452871D01*
X147415487Y-85451500D01*
X147224513Y-85451500D01*
X147218060Y-85452871D01*
X147218056Y-85452872D01*
X147044168Y-85489833D01*
X147044161Y-85489835D01*
X147037712Y-85491206D01*
X147031682Y-85493890D01*
X147031681Y-85493891D01*
X146869278Y-85566197D01*
X146869275Y-85566198D01*
X146863248Y-85568882D01*
X146857907Y-85572762D01*
X146857906Y-85572763D01*
X146714091Y-85677250D01*
X146714083Y-85677256D01*
X146708747Y-85681134D01*
X146704330Y-85686039D01*
X146704325Y-85686044D01*
X146585379Y-85818148D01*
X146580960Y-85823056D01*
X146577661Y-85828769D01*
X146577658Y-85828774D01*
X146488777Y-85982721D01*
X146485473Y-85988444D01*
X146483434Y-85994718D01*
X146483430Y-85994728D01*
X146428497Y-86163794D01*
X146428495Y-86163801D01*
X146426458Y-86170072D01*
X146406496Y-86360000D01*
X146426458Y-86549928D01*
X146428495Y-86556200D01*
X146428497Y-86556205D01*
X146483430Y-86725271D01*
X146483433Y-86725278D01*
X146485473Y-86731556D01*
X146580960Y-86896944D01*
X146654138Y-86978216D01*
X146678131Y-87017370D01*
X146686500Y-87062524D01*
X146686500Y-95817476D01*
X146678131Y-95862630D01*
X146654138Y-95901783D01*
X146580960Y-95983056D01*
X146577661Y-95988769D01*
X146577658Y-95988774D01*
X146488777Y-96142721D01*
X146485473Y-96148444D01*
X146483434Y-96154718D01*
X146483430Y-96154728D01*
X146428497Y-96323794D01*
X146428495Y-96323801D01*
X146426458Y-96330072D01*
X146406496Y-96520000D01*
X123225468Y-96520000D01*
X123205635Y-96293308D01*
X123146739Y-96073504D01*
X123050568Y-95867266D01*
X122920047Y-95680861D01*
X122759139Y-95519953D01*
X122754631Y-95516797D01*
X122754627Y-95516793D01*
X122577239Y-95392586D01*
X122577235Y-95392584D01*
X122572734Y-95389432D01*
X122366496Y-95293261D01*
X122361188Y-95291838D01*
X122361186Y-95291838D01*
X122152006Y-95235789D01*
X122152007Y-95235789D01*
X122146692Y-95234365D01*
X122141216Y-95233885D01*
X122141211Y-95233885D01*
X121979507Y-95219738D01*
X121979501Y-95219737D01*
X121976784Y-95219500D01*
X121863216Y-95219500D01*
X121860499Y-95219737D01*
X121860492Y-95219738D01*
X121698788Y-95233885D01*
X121698781Y-95233886D01*
X121693308Y-95234365D01*
X121687994Y-95235788D01*
X121687993Y-95235789D01*
X121478813Y-95291838D01*
X121478808Y-95291839D01*
X121473504Y-95293261D01*
X121468527Y-95295581D01*
X121468521Y-95295584D01*
X121272247Y-95387109D01*
X121272244Y-95387110D01*
X121267266Y-95389432D01*
X121262769Y-95392580D01*
X121262760Y-95392586D01*
X121085372Y-95516793D01*
X121085361Y-95516801D01*
X121080861Y-95519953D01*
X121076971Y-95523842D01*
X121076965Y-95523848D01*
X120923848Y-95676965D01*
X120923842Y-95676971D01*
X120919953Y-95680861D01*
X120916801Y-95685361D01*
X120916793Y-95685372D01*
X120792586Y-95862760D01*
X120792580Y-95862769D01*
X120789432Y-95867266D01*
X120787110Y-95872244D01*
X120787109Y-95872247D01*
X120695584Y-96068521D01*
X120695581Y-96068527D01*
X120693261Y-96073504D01*
X120634365Y-96293308D01*
X120633886Y-96298781D01*
X120633885Y-96298788D01*
X120630574Y-96336635D01*
X120614532Y-96520000D01*
X113665500Y-96520000D01*
X113665500Y-89855223D01*
X119432000Y-89855223D01*
X119432359Y-89861938D01*
X119437662Y-89911257D01*
X119441259Y-89926478D01*
X119486405Y-90047519D01*
X119494954Y-90063175D01*
X119571697Y-90165692D01*
X119584307Y-90178302D01*
X119686824Y-90255045D01*
X119702480Y-90263594D01*
X119823521Y-90308740D01*
X119838742Y-90312337D01*
X119888061Y-90317640D01*
X119894777Y-90318000D01*
X121649410Y-90318000D01*
X121662493Y-90314493D01*
X121666000Y-90301410D01*
X122174000Y-90301410D01*
X122177506Y-90314493D01*
X122190590Y-90318000D01*
X123945223Y-90318000D01*
X123951938Y-90317640D01*
X124001257Y-90312337D01*
X124016478Y-90308740D01*
X124137519Y-90263594D01*
X124153175Y-90255045D01*
X124255692Y-90178302D01*
X124268302Y-90165692D01*
X124345045Y-90063175D01*
X124353594Y-90047519D01*
X124398740Y-89926478D01*
X124402337Y-89911257D01*
X124407640Y-89861938D01*
X124408000Y-89855223D01*
X124408000Y-89090590D01*
X124404493Y-89077506D01*
X124391410Y-89074000D01*
X122190590Y-89074000D01*
X122177506Y-89077506D01*
X122174000Y-89090590D01*
X122174000Y-90301410D01*
X121666000Y-90301410D01*
X121666000Y-89090590D01*
X121662493Y-89077506D01*
X121649410Y-89074000D01*
X119448590Y-89074000D01*
X119435506Y-89077506D01*
X119432000Y-89090590D01*
X119432000Y-89855223D01*
X113665500Y-89855223D01*
X113665500Y-88549410D01*
X119432000Y-88549410D01*
X119435506Y-88562493D01*
X119448590Y-88566000D01*
X121649410Y-88566000D01*
X121662493Y-88562493D01*
X121666000Y-88549410D01*
X122174000Y-88549410D01*
X122177506Y-88562493D01*
X122190590Y-88566000D01*
X124391410Y-88566000D01*
X124404493Y-88562493D01*
X124408000Y-88549410D01*
X124408000Y-87784777D01*
X124407640Y-87778061D01*
X124402337Y-87728742D01*
X124398740Y-87713521D01*
X124353594Y-87592480D01*
X124345045Y-87576824D01*
X124268302Y-87474307D01*
X124255692Y-87461697D01*
X124153175Y-87384954D01*
X124137519Y-87376405D01*
X124016478Y-87331259D01*
X124001257Y-87327662D01*
X123951938Y-87322359D01*
X123945223Y-87322000D01*
X122190590Y-87322000D01*
X122177506Y-87325506D01*
X122174000Y-87338590D01*
X122174000Y-88549410D01*
X121666000Y-88549410D01*
X121666000Y-87338590D01*
X121662493Y-87325506D01*
X121649410Y-87322000D01*
X119894777Y-87322000D01*
X119888061Y-87322359D01*
X119838742Y-87327662D01*
X119823521Y-87331259D01*
X119702480Y-87376405D01*
X119686824Y-87384954D01*
X119584307Y-87461697D01*
X119571697Y-87474307D01*
X119494954Y-87576824D01*
X119486405Y-87592480D01*
X119441259Y-87713521D01*
X119437662Y-87728742D01*
X119432359Y-87778061D01*
X119432000Y-87784777D01*
X119432000Y-88549410D01*
X113665500Y-88549410D01*
X113665500Y-83944169D01*
X119431500Y-83944169D01*
X119472375Y-84189121D01*
X119474065Y-84194045D01*
X119474067Y-84194051D01*
X119551316Y-84419072D01*
X119551319Y-84419080D01*
X119553010Y-84424004D01*
X119671206Y-84642411D01*
X119823739Y-84838385D01*
X119827570Y-84841912D01*
X119827575Y-84841917D01*
X119977601Y-84980024D01*
X120006448Y-85006580D01*
X120214348Y-85142408D01*
X120441770Y-85242165D01*
X120682510Y-85303128D01*
X120868019Y-85318500D01*
X122969367Y-85318500D01*
X122971981Y-85318500D01*
X123157490Y-85303128D01*
X123398230Y-85242165D01*
X123625652Y-85142408D01*
X123833552Y-85006580D01*
X123994260Y-84858638D01*
X157531500Y-84858638D01*
X157531859Y-84861985D01*
X157531860Y-84861988D01*
X157537168Y-84911367D01*
X157537169Y-84911373D01*
X157538011Y-84919201D01*
X157540762Y-84926578D01*
X157540763Y-84926580D01*
X157585962Y-85047763D01*
X157585964Y-85047766D01*
X157589111Y-85056204D01*
X157594508Y-85063414D01*
X157594510Y-85063417D01*
X157655209Y-85144501D01*
X157676739Y-85173261D01*
X157683950Y-85178659D01*
X157770489Y-85243442D01*
X157793796Y-85260889D01*
X157930799Y-85311989D01*
X157991362Y-85318500D01*
X162045269Y-85318500D01*
X162048638Y-85318500D01*
X162109201Y-85311989D01*
X162246204Y-85260889D01*
X162363261Y-85173261D01*
X162450889Y-85056204D01*
X162501989Y-84919201D01*
X162508500Y-84858638D01*
X162508500Y-82781362D01*
X162501989Y-82720799D01*
X162450889Y-82583796D01*
X162363261Y-82466739D01*
X162356049Y-82461340D01*
X162253417Y-82384510D01*
X162253414Y-82384508D01*
X162246204Y-82379111D01*
X162237766Y-82375964D01*
X162237763Y-82375962D01*
X162116580Y-82330763D01*
X162116578Y-82330762D01*
X162109201Y-82328011D01*
X162101373Y-82327169D01*
X162101367Y-82327168D01*
X162051988Y-82321860D01*
X162051985Y-82321859D01*
X162048638Y-82321500D01*
X157991362Y-82321500D01*
X157988015Y-82321859D01*
X157988011Y-82321860D01*
X157938632Y-82327168D01*
X157938625Y-82327169D01*
X157930799Y-82328011D01*
X157923423Y-82330761D01*
X157923419Y-82330763D01*
X157802236Y-82375962D01*
X157802230Y-82375965D01*
X157793796Y-82379111D01*
X157786588Y-82384506D01*
X157786582Y-82384510D01*
X157683950Y-82461340D01*
X157683946Y-82461343D01*
X157676739Y-82466739D01*
X157671343Y-82473946D01*
X157671340Y-82473950D01*
X157594510Y-82576582D01*
X157594506Y-82576588D01*
X157589111Y-82583796D01*
X157585965Y-82592230D01*
X157585962Y-82592236D01*
X157540763Y-82713419D01*
X157540761Y-82713423D01*
X157538011Y-82720799D01*
X157537169Y-82728625D01*
X157537168Y-82728632D01*
X157531860Y-82778011D01*
X157531500Y-82781362D01*
X157531500Y-84858638D01*
X123994260Y-84858638D01*
X124016261Y-84838385D01*
X124168794Y-84642411D01*
X124286990Y-84424004D01*
X124367625Y-84189121D01*
X124408500Y-83944169D01*
X124408500Y-83695831D01*
X124367625Y-83450879D01*
X124286990Y-83215996D01*
X124168794Y-82997589D01*
X124016261Y-82801615D01*
X124012428Y-82798087D01*
X124012424Y-82798082D01*
X123837392Y-82636955D01*
X123833552Y-82633420D01*
X123829190Y-82630570D01*
X123829186Y-82630567D01*
X123630013Y-82500441D01*
X123630011Y-82500440D01*
X123625652Y-82497592D01*
X123543006Y-82461340D01*
X123403000Y-82399927D01*
X123402996Y-82399925D01*
X123398230Y-82397835D01*
X123393186Y-82396557D01*
X123393184Y-82396557D01*
X123162540Y-82338150D01*
X123162530Y-82338148D01*
X123157490Y-82336872D01*
X123152305Y-82336442D01*
X123152297Y-82336441D01*
X122974581Y-82321715D01*
X122974570Y-82321714D01*
X122971981Y-82321500D01*
X120868019Y-82321500D01*
X120865430Y-82321714D01*
X120865418Y-82321715D01*
X120687702Y-82336441D01*
X120687692Y-82336442D01*
X120682510Y-82336872D01*
X120677471Y-82338147D01*
X120677459Y-82338150D01*
X120446815Y-82396557D01*
X120446810Y-82396558D01*
X120441770Y-82397835D01*
X120437007Y-82399924D01*
X120436999Y-82399927D01*
X120219121Y-82495498D01*
X120219117Y-82495499D01*
X120214348Y-82497592D01*
X120209993Y-82500436D01*
X120209986Y-82500441D01*
X120010813Y-82630567D01*
X120010803Y-82630574D01*
X120006448Y-82633420D01*
X120002613Y-82636950D01*
X120002607Y-82636955D01*
X119827575Y-82798082D01*
X119827564Y-82798093D01*
X119823739Y-82801615D01*
X119820546Y-82805717D01*
X119820538Y-82805726D01*
X119674405Y-82993478D01*
X119674401Y-82993483D01*
X119671206Y-82997589D01*
X119668728Y-83002167D01*
X119668726Y-83002171D01*
X119555491Y-83211410D01*
X119555487Y-83211418D01*
X119553010Y-83215996D01*
X119551321Y-83220914D01*
X119551316Y-83220927D01*
X119474067Y-83445948D01*
X119474064Y-83445956D01*
X119472375Y-83450879D01*
X119431500Y-83695831D01*
X119431500Y-83944169D01*
X113665500Y-83944169D01*
X113665500Y-76200000D01*
X120614532Y-76200000D01*
X120634365Y-76426692D01*
X120693261Y-76646496D01*
X120789432Y-76852734D01*
X120792584Y-76857235D01*
X120792586Y-76857239D01*
X120916793Y-77034627D01*
X120916797Y-77034631D01*
X120919953Y-77039139D01*
X121080861Y-77200047D01*
X121085369Y-77203203D01*
X121085372Y-77203206D01*
X121262760Y-77327413D01*
X121267266Y-77330568D01*
X121473504Y-77426739D01*
X121693308Y-77485635D01*
X121863216Y-77500500D01*
X121974044Y-77500500D01*
X121976784Y-77500500D01*
X122146692Y-77485635D01*
X122366496Y-77426739D01*
X122572734Y-77330568D01*
X122759139Y-77200047D01*
X122920047Y-77039139D01*
X123050568Y-76852734D01*
X123146739Y-76646496D01*
X123205635Y-76426692D01*
X123225468Y-76200000D01*
X158714532Y-76200000D01*
X158734365Y-76426692D01*
X158793261Y-76646496D01*
X158889432Y-76852734D01*
X158892584Y-76857235D01*
X158892586Y-76857239D01*
X159016793Y-77034627D01*
X159016797Y-77034631D01*
X159019953Y-77039139D01*
X159180861Y-77200047D01*
X159185369Y-77203203D01*
X159185372Y-77203206D01*
X159362760Y-77327413D01*
X159367266Y-77330568D01*
X159573504Y-77426739D01*
X159793308Y-77485635D01*
X159963216Y-77500500D01*
X160074044Y-77500500D01*
X160076784Y-77500500D01*
X160246692Y-77485635D01*
X160466496Y-77426739D01*
X160672734Y-77330568D01*
X160859139Y-77200047D01*
X161020047Y-77039139D01*
X161150568Y-76852734D01*
X161246739Y-76646496D01*
X161305635Y-76426692D01*
X161325468Y-76200000D01*
X161305635Y-75973308D01*
X161246739Y-75753504D01*
X161150568Y-75547266D01*
X161020047Y-75360861D01*
X160859139Y-75199953D01*
X160854631Y-75196797D01*
X160854627Y-75196793D01*
X160677239Y-75072586D01*
X160677235Y-75072584D01*
X160672734Y-75069432D01*
X160466496Y-74973261D01*
X160461188Y-74971838D01*
X160461186Y-74971838D01*
X160252006Y-74915789D01*
X160252007Y-74915789D01*
X160246692Y-74914365D01*
X160241216Y-74913885D01*
X160241211Y-74913885D01*
X160079507Y-74899738D01*
X160079501Y-74899737D01*
X160076784Y-74899500D01*
X159963216Y-74899500D01*
X159960499Y-74899737D01*
X159960492Y-74899738D01*
X159798788Y-74913885D01*
X159798781Y-74913886D01*
X159793308Y-74914365D01*
X159787994Y-74915788D01*
X159787993Y-74915789D01*
X159578813Y-74971838D01*
X159578808Y-74971839D01*
X159573504Y-74973261D01*
X159568527Y-74975581D01*
X159568521Y-74975584D01*
X159372247Y-75067109D01*
X159372244Y-75067110D01*
X159367266Y-75069432D01*
X159362769Y-75072580D01*
X159362760Y-75072586D01*
X159185372Y-75196793D01*
X159185361Y-75196801D01*
X159180861Y-75199953D01*
X159176971Y-75203842D01*
X159176965Y-75203848D01*
X159023848Y-75356965D01*
X159023842Y-75356971D01*
X159019953Y-75360861D01*
X159016801Y-75365361D01*
X159016793Y-75365372D01*
X158892586Y-75542760D01*
X158892580Y-75542769D01*
X158889432Y-75547266D01*
X158887110Y-75552244D01*
X158887109Y-75552247D01*
X158795584Y-75748521D01*
X158795581Y-75748527D01*
X158793261Y-75753504D01*
X158734365Y-75973308D01*
X158733886Y-75978781D01*
X158733885Y-75978788D01*
X158715011Y-76194525D01*
X158714532Y-76200000D01*
X123225468Y-76200000D01*
X123205635Y-75973308D01*
X123146739Y-75753504D01*
X123050568Y-75547266D01*
X122920047Y-75360861D01*
X122759139Y-75199953D01*
X122754631Y-75196797D01*
X122754627Y-75196793D01*
X122577239Y-75072586D01*
X122577235Y-75072584D01*
X122572734Y-75069432D01*
X122366496Y-74973261D01*
X122361188Y-74971838D01*
X122361186Y-74971838D01*
X122152006Y-74915789D01*
X122152007Y-74915789D01*
X122146692Y-74914365D01*
X122141216Y-74913885D01*
X122141211Y-74913885D01*
X121979507Y-74899738D01*
X121979501Y-74899737D01*
X121976784Y-74899500D01*
X121863216Y-74899500D01*
X121860499Y-74899737D01*
X121860492Y-74899738D01*
X121698788Y-74913885D01*
X121698781Y-74913886D01*
X121693308Y-74914365D01*
X121687994Y-74915788D01*
X121687993Y-74915789D01*
X121478813Y-74971838D01*
X121478808Y-74971839D01*
X121473504Y-74973261D01*
X121468527Y-74975581D01*
X121468521Y-74975584D01*
X121272247Y-75067109D01*
X121272244Y-75067110D01*
X121267266Y-75069432D01*
X121262769Y-75072580D01*
X121262760Y-75072586D01*
X121085372Y-75196793D01*
X121085361Y-75196801D01*
X121080861Y-75199953D01*
X121076971Y-75203842D01*
X121076965Y-75203848D01*
X120923848Y-75356965D01*
X120923842Y-75356971D01*
X120919953Y-75360861D01*
X120916801Y-75365361D01*
X120916793Y-75365372D01*
X120792586Y-75542760D01*
X120792580Y-75542769D01*
X120789432Y-75547266D01*
X120787110Y-75552244D01*
X120787109Y-75552247D01*
X120695584Y-75748521D01*
X120695581Y-75748527D01*
X120693261Y-75753504D01*
X120634365Y-75973308D01*
X120633886Y-75978781D01*
X120633885Y-75978788D01*
X120615011Y-76194525D01*
X120614532Y-76200000D01*
X113665500Y-76200000D01*
X113665500Y-73049900D01*
X113682381Y-72986900D01*
X113728500Y-72940781D01*
X113791500Y-72923900D01*
X165328501Y-72923900D01*
X165328699Y-72923900D01*
X167437300Y-72923900D01*
X167500300Y-72940781D01*
G37*
%TD.AperFunction*%
%TD*%
M02*
